<svg width="519" height="407" viewBox="0 0 519 407" fill="none" xmlns="http://www.w3.org/2000/svg">
<path d="M8.34126 0.707107C8.73178 0.316583 8.73178 -0.316583 8.34126 -0.707107L1.9773 -7.07107C1.58677 -7.46159 0.953606 -7.46159 0.563082 -7.07107C0.172558 -6.68054 0.172558 -6.04738 0.563082 -5.65685L6.21994 0L0.563082 5.65685C0.172558 6.04738 0.172558 6.68054 0.563082 7.07107C0.953606 7.46159 1.58677 7.46159 1.9773 7.07107L8.34126 0.707107ZM0 1H7.63415V-1H0V1Z" transform="translate(270.402 373.464) rotate(180)" fill="white"/>
<path d="M0 0V19.6778C0 25.2006 4.47715 29.6778 10 29.6778H434.316C439.835 29.6778 444.311 25.2056 444.316 19.6859L444.331 0.453278" transform="translate(42.3251 343.786)" stroke="white" stroke-width="2" stroke-linecap="round" stroke-dasharray="2 5"/>
<path d="M0 0V43.439C0 48.9619 4.47715 53.439 10 53.439H91.6098" transform="translate(138.897 190.244)" stroke="#F4B099" stroke-width="2"/>
<mask id="path-5-inside-1" fill="white">
<path fill-rule="evenodd" clip-rule="evenodd" d="M35.3639 49.6832C44.8398 45.8768 51.5305 36.6024 51.5305 25.7653C51.5305 11.5355 39.995 0 25.7653 0C11.5355 0 0 11.5355 0 25.7653C0 36.6024 6.6908 45.8771 16.1669 49.6833C16.7191 54.495 20.8059 58.2316 25.7654 58.2316C30.725 58.2316 34.8118 54.4949 35.3639 49.6832Z"/>
</mask>
<path fill-rule="evenodd" clip-rule="evenodd" d="M35.3639 49.6832C44.8398 45.8768 51.5305 36.6024 51.5305 25.7653C51.5305 11.5355 39.995 0 25.7653 0C11.5355 0 0 11.5355 0 25.7653C0 36.6024 6.6908 45.8771 16.1669 49.6833C16.7191 54.495 20.8059 58.2316 25.7654 58.2316C30.725 58.2316 34.8118 54.4949 35.3639 49.6832Z" transform="translate(16.9415 205.703)" fill="#F8D34E"/>
<path d="M35.3639 49.6832L34.2457 46.8994L32.5872 47.5656L32.3834 49.3412L35.3639 49.6832ZM16.1669 49.6833L19.1473 49.3413L18.9435 47.5657L17.2851 46.8995L16.1669 49.6833ZM48.5305 25.7653C48.5305 35.3359 42.6237 43.534 34.2457 46.8994L36.4821 52.467C47.056 48.2196 54.5305 37.869 54.5305 25.7653H48.5305ZM25.7653 3C38.3381 3 48.5305 13.1924 48.5305 25.7653H54.5305C54.5305 9.87867 41.6518 -3 25.7653 -3V3ZM3 25.7653C3 13.1924 13.1924 3 25.7653 3V-3C9.87867 -3 -3 9.87867 -3 25.7653H3ZM17.2851 46.8995C8.90691 43.5343 3 35.3359 3 25.7653H-3C-3 37.869 4.47468 48.2199 15.0487 52.4672L17.2851 46.8995ZM25.7654 55.2316C22.3479 55.2316 19.5277 52.6558 19.1473 49.3413L13.1864 50.0254C13.9105 56.3342 19.264 61.2316 25.7654 61.2316V55.2316ZM32.3834 49.3412C32.0031 52.6557 29.183 55.2316 25.7654 55.2316V61.2316C32.2669 61.2316 37.6204 56.3341 38.3443 50.0252L32.3834 49.3412Z" transform="translate(16.9415 205.703)" fill="black" mask="url(#path-5-inside-1)"/>
<rect width="14.2128" height="3.79008" rx="1.89504" transform="translate(35.3088 267.385)" fill="black"/>
<path fill-rule="evenodd" clip-rule="evenodd" d="M12.8284 2.91553C12.8284 1.3053 11.5231 0 9.91296 0C8.30273 0 6.99744 1.3053 6.99744 2.91553H2.91553V6.99719C1.3053 6.99719 0 8.30249 0 9.91272C0 11.5228 1.3053 12.8281 2.91553 12.8281V16.9098H16.9098L16.9099 12.8281C15.2997 12.8281 13.9944 11.5228 13.9944 9.91272C13.9944 8.30249 15.2997 6.99719 16.9099 6.99719L16.9098 2.91553H12.8284Z" transform="translate(34.252 223.014)" fill="white"/>
<rect width="6.745" height="33.725" rx="3.3725" transform="translate(153.215 139.08) rotate(-45)" fill="black"/>
<circle cx="27.4016" cy="27.4016" r="27.4016" transform="translate(114.461 95.5803)" fill="#64B2E3"/>
<circle cx="27.4016" cy="27.4016" r="25.9016" transform="translate(114.461 95.5803)" stroke="black" stroke-width="3"/>
<path fill-rule="evenodd" clip-rule="evenodd" d="M18.2915 4.20169C19.3408 4.0809 20.1555 3.18938 20.1555 2.10784C20.1556 0.943707 19.2118 -1.47069e-05 18.0478 5.54798e-10C16.8837 -2.64218e-05 15.9399 0.943726 15.9399 2.10786C15.9399 2.14519 15.9408 2.18247 15.9428 2.21935C15.8318 2.09862 15.6638 2.03485 15.4901 2.06449L14.5777 2.2204C14.3055 2.26691 14.1224 2.52526 14.1689 2.79745C14.2155 3.06964 14.4738 3.2526 14.746 3.20609L15.6586 3.05022C15.8357 3.02 15.975 2.9 16.0379 2.74489C16.2324 3.3589 16.7005 3.85134 17.2992 4.07879L17.1857 4.99942C17.1519 5.27347 17.3467 5.52312 17.6208 5.55677C17.8948 5.59054 18.1445 5.39581 18.1781 5.12171L18.2915 4.20169ZM4.21562 5.0049C4.21563 6.16892 3.27191 7.11267 2.10778 7.11264C0.943767 7.11266 1.47075e-05 6.16894 0 5.00492C2.64223e-05 3.84079 0.943749 2.89704 2.10788 2.89706C3.05926 2.89706 3.86358 3.52756 4.12558 4.39353C4.14089 4.16849 4.30816 3.97462 4.54043 3.93496L5.45283 3.77904C5.72502 3.73253 5.98337 3.91561 6.02988 4.1878C6.07639 4.45998 5.89346 4.71826 5.62127 4.76477L4.70876 4.92065C4.49579 4.9571 4.29115 4.85288 4.18998 4.67549C4.20682 4.78277 4.21564 4.89289 4.21562 5.0049ZM15.94 20.5491C17.1041 20.5491 18.0479 19.6054 18.0479 18.4414C18.0478 17.5737 17.5237 16.8287 16.7748 16.5053C16.7766 16.4956 16.7781 16.4856 16.7793 16.4757L16.9065 15.4435C16.9403 15.1695 16.7455 14.9199 16.4714 14.8862C16.1974 14.8524 15.9478 15.0472 15.9141 15.3212L15.7887 16.3389C14.6952 16.4165 13.8323 17.3282 13.8322 18.4414C13.8323 19.6054 14.776 20.5491 15.94 20.5491ZM6.86911 4.04433C6.82272 3.77218 7.00564 3.51391 7.27783 3.4674L9.10275 3.1556C9.37494 3.10909 9.63333 3.29206 9.67984 3.56424C9.72635 3.83643 9.54338 4.09482 9.27119 4.14133L7.44616 4.45309C7.17397 4.49959 6.91558 4.31663 6.86911 4.04433ZM10.519 3.42089C10.4725 3.1487 10.6556 2.89035 10.9278 2.84384L12.7527 2.53216C13.0249 2.48565 13.2832 2.66862 13.3298 2.9408C13.3763 3.21299 13.1933 3.47138 12.9211 3.51789L11.0961 3.82953C10.8239 3.87604 10.5655 3.69308 10.519 3.42089ZM17.9239 7.18605C17.9576 6.91199 17.7628 6.66243 17.4887 6.62866C17.2146 6.59489 16.9651 6.78978 16.9313 7.06383L16.6771 9.12817C16.6433 9.40223 16.8381 9.65176 17.1121 9.68553C17.3862 9.71929 17.6357 9.52452 17.6695 9.25047L17.9239 7.18605ZM17.4152 11.3148C17.4489 11.0407 17.2541 10.7912 16.9801 10.7574C16.706 10.7236 16.4565 10.9184 16.4227 11.1925L16.1683 13.2569C16.1345 13.5309 16.3294 13.7805 16.6035 13.8143C16.8775 13.848 17.1271 13.6533 17.1609 13.3791L17.4152 11.3148Z" transform="translate(127.314 119.031) rotate(-19.6903)" fill="white"/>
<path d="M62.1339 1.06066C62.7196 0.474874 62.7196 -0.474874 62.1339 -1.06066L52.5879 -10.6066C52.0021 -11.1924 51.0524 -11.1924 50.4666 -10.6066C49.8808 -10.0208 49.8808 -9.07107 50.4666 -8.48528L58.9519 0L50.4666 8.48528C49.8808 9.07107 49.8808 10.0208 50.4666 10.6066C51.0524 11.1924 52.0021 11.1924 52.5879 10.6066L62.1339 1.06066ZM0 1.5H61.0732V-1.5H0V1.5Z" transform="translate(257.967 266.767) rotate(-90)" fill="black"/>
<path d="M62.1339 1.06066C62.7196 0.474874 62.7196 -0.474874 62.1339 -1.06066L52.5879 -10.6066C52.0021 -11.1924 51.0524 -11.1924 50.4666 -10.6066C49.8808 -10.0208 49.8808 -9.07107 50.4666 -8.48528L58.9519 0L50.4666 8.48528C49.8808 9.07107 49.8808 10.0208 50.4666 10.6066C51.0524 11.1924 52.0021 11.1924 52.5879 10.6066L62.1339 1.06066ZM0 1.5H61.0732V-1.5H0V1.5Z" transform="translate(256.525 265.272)" fill="black"/>
<path d="M0 40.7155H5.53173L11.0635 20.3577L16.5952 33.9296L22.1269 0L27.6586 33.9296H33.1904L38.7221 40.7155" transform="translate(264.753 212.48)" stroke="#F37A98" stroke-width="3" stroke-linecap="round" stroke-linejoin="round"/>
<path d="M0 35.1093V10.634C0 9.77513 0.0915938 8.9134 0.405961 8.11411C1.69573 4.83485 5.14547 0 11.5663 0C17.4439 0 21.0201 4.05142 22.6892 7.25233C23.3846 8.58585 23.5663 10.1051 23.5663 11.6091V34.9476C23.5663 38.9733 21.9482 42.83 19.0758 45.6505L15.1345 49.5205C13.164 51.4555 9.9978 51.4263 8.06316 49.4554L4.29535 45.617C1.54235 42.8124 0 39.0393 0 35.1093Z" transform="translate(386.8 95.5803) rotate(30)" fill="#89C3C3"/>
<path d="M11.5663 0C17.4439 0 21.0201 4.05142 22.6892 7.25233C23.3846 8.58585 23.5663 10.1051 23.5663 11.6091V34.9476C23.5663 38.9733 21.9482 42.83 19.0758 45.6505L15.1345 49.5205C13.164 51.4555 9.9978 51.4264 8.06316 49.4554L4.29535 45.617C1.54235 42.8124 0 39.0393 0 35.1093V10.634C0 9.77513 0.0915938 8.9134 0.405961 8.11411C1.69573 4.83485 5.14547 0 11.5663 0Z" transform="translate(386.8 95.5803) rotate(30)" stroke="black" stroke-width="3"/>
<path d="M0 0V64.8074" transform="translate(396.836 101.763) rotate(30)" stroke="black" stroke-width="3" stroke-linecap="round" stroke-linejoin="round"/>
<path d="M0 11.7832L11.6727 0" transform="translate(390.945 111.967) rotate(30)" stroke="black" stroke-width="3" stroke-linecap="round"/>
<path d="M0 11.7832L11.6727 0" transform="translate(385.149 122.227) rotate(30)" stroke="black" stroke-width="3" stroke-linecap="round"/>
<path d="M0 5.78007L5.72588 0" transform="translate(370.531 147.544) rotate(30)" stroke="black" stroke-width="3" stroke-linecap="round"/>
<path d="M0 5.83478L5.78008 0" transform="translate(362.397 149.522) rotate(-60)" stroke="black" stroke-width="3" stroke-linecap="round"/>
<path d="M0 2.48265C0 1.11152 1.11152 0 2.48265 0H28.5505C29.9216 0 31.0331 1.11152 31.0331 2.48265C31.0331 3.85378 29.9216 4.9653 28.5505 4.9653H2.48265C1.11152 4.9653 0 3.85378 0 2.48265Z" transform="translate(471.671 220.843)" fill="black"/>
<mask id="path-23-inside-2" fill="white">
<path d="M0 0H19.8612V39.7224C19.8612 45.2069 15.4151 49.653 9.9306 49.653C4.44608 49.653 0 45.2069 0 39.7224V0Z"/>
</mask>
<path d="M0 0H19.8612V39.7224C19.8612 45.2069 15.4151 49.653 9.9306 49.653C4.44608 49.653 0 45.2069 0 39.7224V0Z" transform="translate(477.257 223.04)" fill="#92A1DA" stroke="black" stroke-width="6" mask="url(#path-23-inside-2)"/>
<circle cx="1.55166" cy="1.55166" r="1.55166" transform="translate(479.584 215.722)" fill="#BBDDDD"/>
<circle cx="1.55166" cy="1.55166" r="1.55166" transform="translate(490.29 214.636)" fill="#FFD3B5"/>
<circle cx="2.17232" cy="2.17232" r="2.17232" transform="translate(485.946 208.429)" fill="#92A1DA"/>
<circle cx="2.17232" cy="2.17232" r="2.17232" transform="translate(490.29 197.878)" fill="#BBDDDD"/>
<circle cx="3.10331" cy="3.10331" r="3.10331" transform="translate(496.497 204.395)" fill="#FFD3B5"/>
<path d="M95.4269 47.7134C95.4269 21.362 74.0648 0 47.7134 0C21.362 0 0 21.362 0 47.7134" transform="translate(42.797 2.51282)" stroke="white" stroke-width="3" stroke-linecap="round"/>
<path d="M0 0L131.307 0.0954269" transform="translate(42.8022 50.3481) rotate(90)" stroke="white" stroke-width="3" stroke-linecap="round"/>
<path d="M0 0.00517206L23.2706 0" transform="translate(138.229 47.8805) rotate(90)" stroke="white" stroke-width="3" stroke-linecap="round"/>
<circle cx="4.58049" cy="4.58049" r="3.58049" transform="translate(38.1262 181.274)" stroke="#B7D2D2" stroke-width="2"/>
<circle cx="4.58049" cy="4.58049" r="3.58049" transform="translate(134.228 181.274)" stroke="#B7D2D2" stroke-width="2"/>
<circle cx="4.58049" cy="4.58049" r="3.58049" transform="translate(228.98 239.102)" stroke="#B7D2D2" stroke-width="2"/>
<circle cx="4.58049" cy="4.58049" r="3.58049" transform="translate(133.644 71.1511)" stroke="#B7D2D2" stroke-width="2"/>
<path d="M95.4269 47.7134C95.4269 21.362 74.0648 0 47.7134 0C21.362 0 0 21.362 0 47.7134" transform="translate(487.265 2.32202) scale(-1 1)" stroke="white" stroke-width="3" stroke-linecap="round"/>
<path d="M0 0L131.069 0.184097" transform="translate(487.26 50.1571) scale(-1 1) rotate(90)" stroke="white" stroke-width="3" stroke-linecap="round"/>
<path d="M0 0L23.6046 0.0119284" transform="translate(391.838 47.6897) scale(-1 1) rotate(90)" stroke="white" stroke-width="3" stroke-linecap="round"/>
<circle cx="4.58049" cy="4.58049" r="3.58049" transform="translate(491.935 181.083) scale(-1 1)" stroke="#B7D2D2" stroke-width="2"/>
<circle cx="4.58049" cy="4.58049" r="3.58049" transform="translate(396.418 70.9604) scale(-1 1)" stroke="#B7D2D2" stroke-width="2"/>
<path d="M15.241 17V4.22H16.861V17H15.241ZM24.2942 17.18C23.6462 17.18 23.0462 17.048 22.4942 16.784C21.9422 16.52 21.4682 16.166 21.0722 15.722C20.6762 15.278 20.3642 14.762 20.1362 14.174C19.9202 13.586 19.8122 12.968 19.8122 12.32C19.8122 11.66 19.9142 11.036 20.1182 10.448C20.3342 9.848 20.6282 9.326 21.0002 8.882C21.3842 8.438 21.8342 8.09 22.3502 7.838C22.8782 7.574 23.4542 7.442 24.0782 7.442C24.8342 7.442 25.5062 7.64 26.0942 8.036C26.6942 8.432 27.1682 8.912 27.5162 9.476V3.86H29.1002V15.056C29.1002 15.428 29.2682 15.62 29.6042 15.632V17C29.4362 17.024 29.2982 17.042 29.1902 17.054C29.0942 17.066 28.9982 17.072 28.9022 17.072C28.5902 17.072 28.3142 16.97 28.0742 16.766C27.8462 16.55 27.7322 16.304 27.7322 16.028V15.236C27.3602 15.848 26.8622 16.328 26.2382 16.676C25.6262 17.012 24.9782 17.18 24.2942 17.18ZM24.6722 15.812C24.9602 15.812 25.2542 15.758 25.5542 15.65C25.8662 15.542 26.1542 15.392 26.4182 15.2C26.6942 15.008 26.9282 14.786 27.1202 14.534C27.3242 14.27 27.4562 13.994 27.5162 13.706V11.006C27.4082 10.706 27.2462 10.424 27.0302 10.16C26.8142 9.884 26.5682 9.65 26.2922 9.458C26.0282 9.254 25.7402 9.098 25.4282 8.99C25.1282 8.87 24.8282 8.81 24.5282 8.81C24.0602 8.81 23.6342 8.912 23.2502 9.116C22.8782 9.308 22.5542 9.572 22.2782 9.908C22.0142 10.232 21.8102 10.61 21.6662 11.042C21.5222 11.462 21.4502 11.894 21.4502 12.338C21.4502 12.806 21.5342 13.256 21.7022 13.688C21.8702 14.108 22.0982 14.474 22.3862 14.786C22.6742 15.098 23.0102 15.35 23.3942 15.542C23.7902 15.722 24.2162 15.812 24.6722 15.812ZM36.8025 17.18C36.0945 17.18 35.4465 17.054 34.8585 16.802C34.2705 16.538 33.7665 16.184 33.3465 15.74C32.9265 15.296 32.5965 14.78 32.3565 14.192C32.1285 13.592 32.0145 12.962 32.0145 12.302C32.0145 11.642 32.1285 11.018 32.3565 10.43C32.5965 9.842 32.9265 9.326 33.3465 8.882C33.7785 8.438 34.2885 8.09 34.8765 7.838C35.4645 7.574 36.1125 7.442 36.8205 7.442C37.5285 7.442 38.1705 7.574 38.7465 7.838C39.3345 8.102 39.8325 8.456 40.2405 8.9C40.6485 9.332 40.9605 9.842 41.1765 10.43C41.4045 11.006 41.5185 11.606 41.5185 12.23C41.5185 12.362 41.5125 12.482 41.5005 12.59C41.5005 12.698 41.4945 12.782 41.4825 12.842H33.6885C33.7245 13.31 33.8325 13.736 34.0125 14.12C34.1925 14.504 34.4265 14.834 34.7145 15.11C35.0025 15.386 35.3265 15.602 35.6865 15.758C36.0585 15.914 36.4485 15.992 36.8565 15.992C37.1445 15.992 37.4265 15.956 37.7025 15.884C37.9785 15.8 38.2365 15.692 38.4765 15.56C38.7165 15.428 38.9265 15.266 39.1065 15.074C39.2985 14.882 39.4425 14.666 39.5385 14.426L40.9065 14.804C40.7505 15.152 40.5345 15.47 40.2585 15.758C39.9945 16.046 39.6825 16.298 39.3225 16.514C38.9745 16.718 38.5845 16.88 38.1525 17C37.7205 17.12 37.2705 17.18 36.8025 17.18ZM40.0245 11.672C39.9885 11.228 39.8745 10.82 39.6825 10.448C39.5025 10.064 39.2685 9.74 38.9805 9.476C38.7045 9.212 38.3805 9.008 38.0085 8.864C37.6365 8.708 37.2405 8.63 36.8205 8.63C36.4005 8.63 36.0045 8.708 35.6325 8.864C35.2605 9.008 34.9305 9.218 34.6425 9.494C34.3665 9.758 34.1385 10.076 33.9585 10.448C33.7905 10.82 33.6885 11.228 33.6525 11.672H40.0245ZM52.3333 17H50.7493V11.744C50.7493 10.736 50.5933 10.004 50.2813 9.548C49.9813 9.092 49.5193 8.864 48.8953 8.864C48.5713 8.864 48.2473 8.93 47.9233 9.062C47.5993 9.182 47.2933 9.35 47.0053 9.566C46.7173 9.782 46.4653 10.04 46.2493 10.34C46.0333 10.64 45.8713 10.97 45.7633 11.33V17H44.1793V7.604H45.6193V9.62C45.9913 8.96 46.5253 8.432 47.2213 8.036C47.9293 7.64 48.6973 7.442 49.5253 7.442C50.0653 7.442 50.5153 7.544 50.8753 7.748C51.2353 7.94 51.5233 8.216 51.7393 8.576C51.9553 8.924 52.1053 9.338 52.1893 9.818C52.2853 10.298 52.3333 10.82 52.3333 11.384V17ZM60.4686 16.532C60.3726 16.58 60.2466 16.64 60.0906 16.712C59.9346 16.772 59.7546 16.838 59.5506 16.91C59.3586 16.97 59.1426 17.018 58.9026 17.054C58.6746 17.102 58.4346 17.126 58.1826 17.126C57.6066 17.126 57.1086 16.97 56.6886 16.658C56.2686 16.334 56.0586 15.836 56.0586 15.164V8.846H54.7806V7.604H56.0586V4.472H57.6426V7.604H59.7486V8.846H57.6426V14.678C57.6666 15.026 57.7806 15.278 57.9846 15.434C58.1886 15.59 58.4286 15.668 58.7046 15.668C59.0166 15.668 59.2986 15.62 59.5506 15.524C59.8146 15.416 59.9946 15.332 60.0906 15.272L60.4686 16.532ZM62.8367 17V7.604H64.4207V17H62.8367ZM62.8367 5.84V3.86H64.4207V5.84H62.8367ZM68.3891 17V8.846H67.1111V7.604H68.3891V7.406C68.3891 6.242 68.6471 5.33 69.1631 4.67C69.6791 4.01 70.3811 3.68 71.2691 3.68C71.6411 3.68 72.0071 3.734 72.3671 3.842C72.7271 3.938 73.0511 4.076 73.3391 4.256L72.9431 5.426C72.7751 5.306 72.5651 5.21 72.3131 5.138C72.0731 5.066 71.8331 5.03 71.5931 5.03C71.0651 5.03 70.6631 5.228 70.3871 5.624C70.1111 6.02 69.9731 6.596 69.9731 7.352V7.604H72.4751V8.846H69.9731V17H68.3891ZM75.387 19.556C75.543 19.58 75.699 19.598 75.855 19.61C76.011 19.622 76.131 19.628 76.215 19.628C76.359 19.628 76.485 19.592 76.593 19.52C76.713 19.46 76.827 19.334 76.935 19.142C77.055 18.95 77.187 18.68 77.331 18.332C77.475 17.996 77.655 17.552 77.871 17L73.893 7.604H75.531L78.735 15.578L81.651 7.604H83.163L78.591 19.466C78.423 19.886 78.141 20.252 77.745 20.564C77.361 20.888 76.827 21.05 76.143 21.05C76.035 21.05 75.921 21.044 75.801 21.032C75.693 21.02 75.555 20.996 75.387 20.96V19.556ZM6.31134 38V25.22H11.6393C12.2033 25.22 12.7193 25.34 13.1873 25.58C13.6673 25.808 14.0753 26.12 14.4113 26.516C14.7593 26.9 15.0293 27.338 15.2213 27.83C15.4133 28.31 15.5093 28.802 15.5093 29.306C15.5093 29.834 15.4193 30.344 15.2393 30.836C15.0593 31.328 14.8013 31.766 14.4653 32.15C14.1413 32.534 13.7453 32.84 13.2773 33.068C12.8213 33.296 12.3113 33.41 11.7473 33.41H7.93134V38H6.31134ZM7.93134 31.97H11.6573C11.9933 31.97 12.2933 31.904 12.5573 31.772C12.8333 31.628 13.0673 31.436 13.2593 31.196C13.4513 30.944 13.6013 30.656 13.7093 30.332C13.8173 30.008 13.8713 29.666 13.8713 29.306C13.8713 28.934 13.8053 28.586 13.6733 28.262C13.5533 27.938 13.3853 27.656 13.1693 27.416C12.9653 27.176 12.7193 26.99 12.4313 26.858C12.1553 26.726 11.8613 26.66 11.5493 26.66H7.93134V31.97ZM23.1422 29.99C22.3502 30.014 21.6482 30.218 21.0362 30.602C20.4362 30.986 20.0102 31.52 19.7582 32.204V38H18.1742V28.604H19.6502V30.782C19.9742 30.134 20.4002 29.612 20.9282 29.216C21.4562 28.808 22.0202 28.58 22.6202 28.532C22.7402 28.532 22.8422 28.532 22.9262 28.532C23.0102 28.532 23.0822 28.538 23.1422 28.55V29.99ZM29.5063 38.18C28.7983 38.18 28.1503 38.048 27.5623 37.784C26.9863 37.52 26.4883 37.166 26.0683 36.722C25.6603 36.278 25.3423 35.762 25.1143 35.174C24.8863 34.586 24.7723 33.968 24.7723 33.32C24.7723 32.66 24.8863 32.036 25.1143 31.448C25.3543 30.86 25.6783 30.344 26.0863 29.9C26.5063 29.456 27.0043 29.102 27.5803 28.838C28.1683 28.574 28.8103 28.442 29.5063 28.442C30.2023 28.442 30.8443 28.574 31.4323 28.838C32.0203 29.102 32.5183 29.456 32.9263 29.9C33.3463 30.344 33.6703 30.86 33.8983 31.448C34.1383 32.036 34.2583 32.66 34.2583 33.32C34.2583 33.968 34.1443 34.586 33.9163 35.174C33.6883 35.762 33.3643 36.278 32.9443 36.722C32.5243 37.166 32.0203 37.52 31.4323 37.784C30.8563 38.048 30.2143 38.18 29.5063 38.18ZM26.3923 33.338C26.3923 33.83 26.4703 34.286 26.6263 34.706C26.7943 35.126 27.0163 35.492 27.2923 35.804C27.5803 36.116 27.9103 36.362 28.2823 36.542C28.6663 36.722 29.0743 36.812 29.5063 36.812C29.9383 36.812 30.3403 36.722 30.7123 36.542C31.0963 36.362 31.4323 36.116 31.7203 35.804C32.0083 35.48 32.2303 35.108 32.3863 34.688C32.5543 34.256 32.6383 33.794 32.6383 33.302C32.6383 32.822 32.5543 32.372 32.3863 31.952C32.2303 31.52 32.0083 31.148 31.7203 30.836C31.4323 30.512 31.0963 30.26 30.7123 30.08C30.3403 29.9 29.9383 29.81 29.5063 29.81C29.0743 29.81 28.6663 29.906 28.2823 30.098C27.9103 30.278 27.5803 30.53 27.2923 30.854C27.0163 31.166 26.7943 31.538 26.6263 31.97C26.4703 32.39 26.3923 32.846 26.3923 33.338ZM41.9017 38.18C41.1697 38.18 40.5037 38 39.9037 37.64C39.3037 37.28 38.8297 36.812 38.4817 36.236V38H37.0777V24.86H38.6617V30.476C39.0577 29.864 39.5437 29.372 40.1197 29C40.6957 28.628 41.3677 28.442 42.1357 28.442C42.7837 28.442 43.3657 28.58 43.8817 28.856C44.3977 29.132 44.8357 29.498 45.1957 29.954C45.5677 30.398 45.8497 30.92 46.0417 31.52C46.2457 32.108 46.3477 32.714 46.3477 33.338C46.3477 33.998 46.2337 34.622 46.0057 35.21C45.7777 35.798 45.4657 36.314 45.0697 36.758C44.6737 37.19 44.1997 37.538 43.6477 37.802C43.1077 38.054 42.5257 38.18 41.9017 38.18ZM41.5057 36.812C41.9737 36.812 42.4057 36.716 42.8017 36.524C43.1977 36.332 43.5397 36.074 43.8277 35.75C44.1157 35.426 44.3377 35.06 44.4937 34.652C44.6497 34.232 44.7277 33.794 44.7277 33.338C44.7277 32.882 44.6497 32.444 44.4937 32.024C44.3497 31.592 44.1397 31.214 43.8637 30.89C43.5997 30.566 43.2757 30.308 42.8917 30.116C42.5197 29.912 42.1057 29.81 41.6497 29.81C41.3137 29.81 40.9957 29.87 40.6957 29.99C40.3957 30.11 40.1137 30.272 39.8497 30.476C39.5977 30.668 39.3697 30.896 39.1657 31.16C38.9737 31.424 38.8057 31.706 38.6617 32.006V34.724C38.7217 35.024 38.8477 35.3 39.0397 35.552C39.2437 35.804 39.4777 36.026 39.7417 36.218C40.0177 36.398 40.3057 36.542 40.6057 36.65C40.9177 36.758 41.2177 36.812 41.5057 36.812ZM49.2285 24.86H50.8125V35.57C50.8125 35.918 50.9025 36.194 51.0825 36.398C51.2745 36.59 51.5385 36.686 51.8745 36.686C52.0065 36.686 52.1625 36.668 52.3425 36.632C52.5225 36.584 52.6905 36.53 52.8465 36.47L53.0985 37.748C52.8345 37.856 52.5225 37.946 52.1625 38.018C51.8025 38.09 51.4845 38.126 51.2085 38.126C50.5965 38.126 50.1105 37.952 49.7505 37.604C49.4025 37.256 49.2285 36.77 49.2285 36.146V24.86ZM59.4009 38.18C58.6929 38.18 58.0449 38.054 57.4569 37.802C56.8689 37.538 56.3649 37.184 55.9449 36.74C55.5249 36.296 55.1949 35.78 54.9549 35.192C54.7269 34.592 54.6129 33.962 54.6129 33.302C54.6129 32.642 54.7269 32.018 54.9549 31.43C55.1949 30.842 55.5249 30.326 55.9449 29.882C56.3769 29.438 56.8869 29.09 57.4749 28.838C58.0629 28.574 58.7109 28.442 59.4189 28.442C60.1269 28.442 60.7689 28.574 61.3449 28.838C61.9329 29.102 62.4309 29.456 62.8389 29.9C63.2469 30.332 63.5589 30.842 63.7749 31.43C64.0029 32.006 64.1169 32.606 64.1169 33.23C64.1169 33.362 64.1109 33.482 64.0989 33.59C64.0989 33.698 64.0929 33.782 64.0809 33.842H56.2869C56.3229 34.31 56.4309 34.736 56.6109 35.12C56.7909 35.504 57.0249 35.834 57.3129 36.11C57.6009 36.386 57.9249 36.602 58.2849 36.758C58.6569 36.914 59.0469 36.992 59.4549 36.992C59.7429 36.992 60.0249 36.956 60.3009 36.884C60.5769 36.8 60.8349 36.692 61.0749 36.56C61.3149 36.428 61.5249 36.266 61.7049 36.074C61.8969 35.882 62.0409 35.666 62.1369 35.426L63.5049 35.804C63.3489 36.152 63.1329 36.47 62.8569 36.758C62.5929 37.046 62.2809 37.298 61.9209 37.514C61.5729 37.718 61.1829 37.88 60.7509 38C60.3189 38.12 59.8689 38.18 59.4009 38.18ZM62.6229 32.672C62.5869 32.228 62.4729 31.82 62.2809 31.448C62.1009 31.064 61.8669 30.74 61.5789 30.476C61.3029 30.212 60.9789 30.008 60.6069 29.864C60.2349 29.708 59.8389 29.63 59.4189 29.63C58.9989 29.63 58.6029 29.708 58.2309 29.864C57.8589 30.008 57.5289 30.218 57.2409 30.494C56.9649 30.758 56.7369 31.076 56.5569 31.448C56.3889 31.82 56.2869 32.228 56.2509 32.672H62.6229ZM80.9437 38H79.3597V32.744C79.3597 31.76 79.1977 31.034 78.8737 30.566C78.5617 30.098 78.0937 29.864 77.4697 29.864C76.8217 29.864 76.2397 30.098 75.7237 30.566C75.2197 31.022 74.8597 31.616 74.6437 32.348V38H73.0597V32.744C73.0597 31.736 72.9037 31.004 72.5917 30.548C72.2797 30.092 71.8117 29.864 71.1877 29.864C70.5517 29.864 69.9757 30.092 69.4597 30.548C68.9437 30.992 68.5777 31.586 68.3617 32.33V38H66.7777V28.604H68.2177V30.62C68.6017 29.924 69.0997 29.39 69.7117 29.018C70.3237 28.634 71.0137 28.442 71.7817 28.442C72.5737 28.442 73.1977 28.658 73.6537 29.09C74.1217 29.51 74.4097 30.056 74.5177 30.728C75.3577 29.204 76.5517 28.442 78.0997 28.442C78.6397 28.442 79.0897 28.544 79.4497 28.748C79.8217 28.94 80.1157 29.216 80.3317 29.576C80.5477 29.924 80.7037 30.338 80.7997 30.818C80.8957 31.298 80.9437 31.82 80.9437 32.384V38ZM87.6006 38.18C86.8446 38.18 86.1006 38.066 85.3686 37.838C84.6366 37.598 84.0066 37.256 83.4786 36.812L84.1626 35.75C84.7146 36.17 85.2666 36.488 85.8186 36.704C86.3706 36.908 86.9526 37.01 87.5646 37.01C88.2486 37.01 88.7886 36.878 89.1846 36.614C89.5926 36.338 89.7966 35.954 89.7966 35.462C89.7966 35.234 89.7426 35.042 89.6346 34.886C89.5266 34.718 89.3646 34.574 89.1486 34.454C88.9326 34.334 88.6566 34.226 88.3206 34.13C87.9846 34.034 87.5946 33.932 87.1506 33.824C86.5866 33.68 86.1006 33.542 85.6926 33.41C85.2846 33.278 84.9486 33.122 84.6846 32.942C84.4206 32.762 84.2286 32.546 84.1086 32.294C83.9886 32.042 83.9286 31.73 83.9286 31.358C83.9286 30.89 84.0186 30.476 84.1986 30.116C84.3906 29.744 84.6486 29.438 84.9726 29.198C85.2966 28.946 85.6746 28.76 86.1066 28.64C86.5506 28.508 87.0246 28.442 87.5286 28.442C88.2366 28.442 88.8966 28.556 89.5086 28.784C90.1206 29.012 90.6366 29.312 91.0566 29.684L90.3366 30.638C89.9406 30.29 89.4966 30.032 89.0046 29.864C88.5126 29.684 88.0086 29.594 87.4926 29.594C86.9166 29.594 86.4246 29.72 86.0166 29.972C85.6206 30.212 85.4226 30.602 85.4226 31.142C85.4226 31.358 85.4586 31.538 85.5306 31.682C85.6146 31.826 85.7466 31.952 85.9266 32.06C86.1066 32.168 86.3346 32.264 86.6106 32.348C86.8986 32.432 87.2406 32.522 87.6366 32.618C88.2606 32.762 88.8006 32.912 89.2566 33.068C89.7246 33.212 90.1086 33.386 90.4086 33.59C90.7206 33.794 90.9486 34.034 91.0926 34.31C91.2486 34.586 91.3266 34.922 91.3266 35.318C91.3266 36.194 90.9906 36.89 90.3186 37.406C89.6466 37.922 88.7406 38.18 87.6006 38.18Z" transform="translate(-6 285.671)" fill="white"/>
<path d="M7.00959 4.22H8.37759L13.5976 17H11.8696L10.3576 13.256H4.99359L3.49959 17H1.77159L7.00959 4.22ZM9.99759 11.996L7.69359 6.092L5.31759 11.996H9.99759ZM24.1052 17H22.5212V11.744C22.5212 10.736 22.3652 10.004 22.0532 9.548C21.7532 9.092 21.2912 8.864 20.6672 8.864C20.3432 8.864 20.0192 8.93 19.6952 9.062C19.3712 9.182 19.0652 9.35 18.7772 9.566C18.4892 9.782 18.2372 10.04 18.0212 10.34C17.8052 10.64 17.6432 10.97 17.5352 11.33V17H15.9512V7.604H17.3912V9.62C17.7632 8.96 18.2972 8.432 18.9932 8.036C19.7012 7.64 20.4692 7.442 21.2972 7.442C21.8372 7.442 22.2872 7.544 22.6472 7.748C23.0072 7.94 23.2952 8.216 23.5112 8.576C23.7272 8.924 23.8772 9.338 23.9612 9.818C24.0572 10.298 24.1052 10.82 24.1052 11.384V17ZM29.8804 17.18C29.4364 17.18 29.0224 17.108 28.6384 16.964C28.2544 16.808 27.9184 16.598 27.6304 16.334C27.3544 16.07 27.1324 15.764 26.9644 15.416C26.8084 15.056 26.7304 14.666 26.7304 14.246C26.7304 13.814 26.8264 13.424 27.0184 13.076C27.2104 12.716 27.4804 12.41 27.8284 12.158C28.1884 11.906 28.6084 11.708 29.0884 11.564C29.5804 11.42 30.1144 11.348 30.6904 11.348C31.1464 11.348 31.6084 11.39 32.0764 11.474C32.5444 11.558 32.9584 11.672 33.3184 11.816V11.06C33.3184 10.292 33.1024 9.692 32.6704 9.26C32.2384 8.816 31.6264 8.594 30.8344 8.594C29.8864 8.594 28.8904 8.96 27.8464 9.692L27.3244 8.666C28.5364 7.85 29.7544 7.442 30.9784 7.442C32.2144 7.442 33.1744 7.772 33.8584 8.432C34.5544 9.092 34.9024 10.022 34.9024 11.222V15.056C34.9024 15.428 35.0704 15.62 35.4064 15.632V17C35.2384 17.024 35.1004 17.042 34.9924 17.054C34.8844 17.066 34.7704 17.072 34.6504 17.072C34.3384 17.072 34.0864 16.982 33.8944 16.802C33.7144 16.61 33.6064 16.382 33.5704 16.118L33.5344 15.452C33.1144 16.016 32.5804 16.448 31.9324 16.748C31.2964 17.036 30.6124 17.18 29.8804 17.18ZM30.2944 15.992C30.8584 15.992 31.3804 15.89 31.8604 15.686C32.3524 15.47 32.7244 15.188 32.9764 14.84C33.2044 14.612 33.3184 14.378 33.3184 14.138V12.752C32.5504 12.452 31.7524 12.302 30.9244 12.302C30.1324 12.302 29.4844 12.47 28.9804 12.806C28.4884 13.142 28.2424 13.58 28.2424 14.12C28.2424 14.384 28.2904 14.63 28.3864 14.858C28.4944 15.086 28.6384 15.284 28.8184 15.452C29.0104 15.62 29.2324 15.752 29.4844 15.848C29.7364 15.944 30.0064 15.992 30.2944 15.992ZM38.3712 3.86H39.9552V14.57C39.9552 14.918 40.0452 15.194 40.2252 15.398C40.4172 15.59 40.6812 15.686 41.0172 15.686C41.1492 15.686 41.3052 15.668 41.4852 15.632C41.6652 15.584 41.8332 15.53 41.9892 15.47L42.2412 16.748C41.9772 16.856 41.6652 16.946 41.3052 17.018C40.9452 17.09 40.6272 17.126 40.3512 17.126C39.7392 17.126 39.2532 16.952 38.8932 16.604C38.5452 16.256 38.3712 15.77 38.3712 15.146V3.86ZM44.4836 19.556C44.6396 19.58 44.7956 19.598 44.9516 19.61C45.1076 19.622 45.2276 19.628 45.3116 19.628C45.4556 19.628 45.5816 19.592 45.6896 19.52C45.8096 19.46 45.9236 19.334 46.0316 19.142C46.1516 18.95 46.2836 18.68 46.4276 18.332C46.5716 17.996 46.7516 17.552 46.9676 17L42.9896 7.604H44.6276L47.8316 15.578L50.7476 7.604H52.2596L47.6876 19.466C47.5196 19.886 47.2376 20.252 46.8416 20.564C46.4576 20.888 45.9236 21.05 45.2396 21.05C45.1316 21.05 45.0176 21.044 44.8976 21.032C44.7896 21.02 44.6516 20.996 44.4836 20.96V19.556ZM57.8081 17.18C57.0521 17.18 56.3081 17.066 55.5761 16.838C54.8441 16.598 54.2141 16.256 53.6861 15.812L54.3701 14.75C54.9221 15.17 55.4741 15.488 56.0261 15.704C56.5781 15.908 57.1601 16.01 57.7721 16.01C58.4561 16.01 58.9961 15.878 59.3921 15.614C59.8001 15.338 60.0041 14.954 60.0041 14.462C60.0041 14.234 59.9501 14.042 59.8421 13.886C59.7341 13.718 59.5721 13.574 59.3561 13.454C59.1401 13.334 58.8641 13.226 58.5281 13.13C58.1921 13.034 57.8021 12.932 57.3581 12.824C56.7941 12.68 56.3081 12.542 55.9001 12.41C55.4921 12.278 55.1561 12.122 54.8921 11.942C54.6281 11.762 54.4361 11.546 54.3161 11.294C54.1961 11.042 54.1361 10.73 54.1361 10.358C54.1361 9.89 54.2261 9.476 54.4061 9.116C54.5981 8.744 54.8561 8.438 55.1801 8.198C55.5041 7.946 55.8821 7.76 56.3141 7.64C56.7581 7.508 57.2321 7.442 57.7361 7.442C58.4441 7.442 59.1041 7.556 59.7161 7.784C60.3281 8.012 60.8441 8.312 61.2641 8.684L60.5441 9.638C60.1481 9.29 59.7041 9.032 59.2121 8.864C58.7201 8.684 58.2161 8.594 57.7001 8.594C57.1241 8.594 56.6321 8.72 56.2241 8.972C55.8281 9.212 55.6301 9.602 55.6301 10.142C55.6301 10.358 55.6661 10.538 55.7381 10.682C55.8221 10.826 55.9541 10.952 56.1341 11.06C56.3141 11.168 56.5421 11.264 56.8181 11.348C57.1061 11.432 57.4481 11.522 57.8441 11.618C58.4681 11.762 59.0081 11.912 59.4641 12.068C59.9321 12.212 60.3161 12.386 60.6161 12.59C60.9281 12.794 61.1561 13.034 61.3001 13.31C61.4561 13.586 61.5341 13.922 61.5341 14.318C61.5341 15.194 61.1981 15.89 60.5261 16.406C59.8541 16.922 58.9481 17.18 57.8081 17.18ZM64.3087 17V7.604H65.8927V17H64.3087ZM64.3087 5.84V3.86H65.8927V5.84H64.3087ZM72.6511 17.18C71.8951 17.18 71.1511 17.066 70.4191 16.838C69.6871 16.598 69.0571 16.256 68.5291 15.812L69.2131 14.75C69.7651 15.17 70.3171 15.488 70.8691 15.704C71.4211 15.908 72.0031 16.01 72.6151 16.01C73.2991 16.01 73.8391 15.878 74.2351 15.614C74.6431 15.338 74.8471 14.954 74.8471 14.462C74.8471 14.234 74.7931 14.042 74.6851 13.886C74.5771 13.718 74.4151 13.574 74.1991 13.454C73.9831 13.334 73.7071 13.226 73.3711 13.13C73.0351 13.034 72.6451 12.932 72.2011 12.824C71.6371 12.68 71.1511 12.542 70.7431 12.41C70.3351 12.278 69.9991 12.122 69.7351 11.942C69.4711 11.762 69.2791 11.546 69.1591 11.294C69.0391 11.042 68.9791 10.73 68.9791 10.358C68.9791 9.89 69.0691 9.476 69.2491 9.116C69.4411 8.744 69.6991 8.438 70.0231 8.198C70.3471 7.946 70.7251 7.76 71.1571 7.64C71.6011 7.508 72.0751 7.442 72.5791 7.442C73.2871 7.442 73.9471 7.556 74.5591 7.784C75.1711 8.012 75.6871 8.312 76.1071 8.684L75.3871 9.638C74.9911 9.29 74.5471 9.032 74.0551 8.864C73.5631 8.684 73.0591 8.594 72.5431 8.594C71.9671 8.594 71.4751 8.72 71.0671 8.972C70.6711 9.212 70.4731 9.602 70.4731 10.142C70.4731 10.358 70.5091 10.538 70.5811 10.682C70.6651 10.826 70.7971 10.952 70.9771 11.06C71.1571 11.168 71.3851 11.264 71.6611 11.348C71.9491 11.432 72.2911 11.522 72.6871 11.618C73.3111 11.762 73.8511 11.912 74.3071 12.068C74.7751 12.212 75.1591 12.386 75.4591 12.59C75.7711 12.794 75.9991 13.034 76.1431 13.31C76.2991 13.586 76.3771 13.922 76.3771 14.318C76.3771 15.194 76.0411 15.89 75.3691 16.406C74.6971 16.922 73.7911 17.18 72.6511 17.18Z" transform="translate(247.329 285.16)" fill="white"/>
<path d="M14.0129 16.56C14.1329 16.644 14.2289 16.752 14.3009 16.884C14.3729 17.004 14.4089 17.13 14.4089 17.262C14.4089 17.514 14.3249 17.7 14.1569 17.82C14.0009 17.94 13.8089 18 13.5809 18C13.3529 18 13.1609 17.952 13.0049 17.856C12.6449 17.652 12.3509 17.322 12.1229 16.866C11.8949 16.41 11.7809 15.738 11.7809 14.85C11.7809 14.25 11.6009 13.806 11.2409 13.518C10.8809 13.23 10.4129 13.086 9.83695 13.086H6.20095V17.136C6.20095 17.388 6.12895 17.598 5.98495 17.766C5.84095 17.922 5.65495 18 5.42695 18C5.15095 18 4.91095 17.916 4.70695 17.748C4.51495 17.58 4.41895 17.376 4.41895 17.136V6.264C4.41895 6.024 4.50295 5.82 4.67095 5.652C4.83895 5.484 5.04295 5.4 5.28295 5.4H10.3409C10.9889 5.4 11.5829 5.562 12.1229 5.886C12.6629 6.198 13.0949 6.636 13.4189 7.2C13.7429 7.752 13.9049 8.376 13.9049 9.072C13.9049 9.744 13.7249 10.374 13.3649 10.962C13.0049 11.538 12.5429 11.97 11.9789 12.258C12.4229 12.486 12.7709 12.804 13.0229 13.212C13.2869 13.62 13.4309 14.094 13.4549 14.634C13.5029 15.318 13.5569 15.786 13.6169 16.038C13.6769 16.278 13.8089 16.452 14.0129 16.56ZM10.3049 11.592C10.6049 11.568 10.8869 11.448 11.1509 11.232C11.4269 11.016 11.6489 10.728 11.8169 10.368C11.9849 9.996 12.0689 9.582 12.0689 9.126C12.0689 8.55 11.8889 8.064 11.5289 7.668C11.1809 7.26 10.7549 7.056 10.2509 7.056H6.20095V11.592H10.3049ZM25.5294 12.924C25.5174 13.14 25.4274 13.326 25.2594 13.482C25.0914 13.626 24.8934 13.698 24.6654 13.698H18.3294C18.4134 14.574 18.7434 15.276 19.3194 15.804C19.9074 16.332 20.6214 16.596 21.4614 16.596C22.0374 16.596 22.5054 16.512 22.8654 16.344C23.2254 16.176 23.5434 15.96 23.8194 15.696C23.9994 15.588 24.1734 15.534 24.3414 15.534C24.5454 15.534 24.7134 15.606 24.8454 15.75C24.9894 15.894 25.0614 16.062 25.0614 16.254C25.0614 16.506 24.9414 16.734 24.7014 16.938C24.3534 17.286 23.8914 17.58 23.3154 17.82C22.7394 18.06 22.1514 18.18 21.5514 18.18C20.5794 18.18 19.7214 17.976 18.9774 17.568C18.2454 17.16 17.6754 16.59 17.2674 15.858C16.8714 15.126 16.6734 14.298 16.6734 13.374C16.6734 12.366 16.8774 11.484 17.2854 10.728C17.7054 9.96 18.2514 9.372 18.9234 8.964C19.6074 8.556 20.3394 8.352 21.1194 8.352C21.8874 8.352 22.6074 8.55 23.2794 8.946C23.9514 9.342 24.4914 9.888 24.8994 10.584C25.3074 11.28 25.5174 12.06 25.5294 12.924ZM21.1194 9.936C20.4474 9.936 19.8654 10.128 19.3734 10.512C18.8814 10.884 18.5574 11.466 18.4014 12.258H23.7114V12.114C23.6514 11.478 23.3634 10.956 22.8474 10.548C22.3434 10.14 21.7674 9.936 21.1194 9.936ZM33.1491 8.406C33.9651 8.406 34.7031 8.616 35.3631 9.036C36.0231 9.444 36.5391 10.02 36.9111 10.764C37.2951 11.508 37.4871 12.348 37.4871 13.284C37.4871 14.22 37.2951 15.06 36.9111 15.804C36.5391 16.536 36.0231 17.112 35.3631 17.532C34.7031 17.952 33.9771 18.162 33.1851 18.162C32.5611 18.162 31.9791 18.024 31.4391 17.748C30.8991 17.472 30.4611 17.136 30.1251 16.74V20.736C30.1251 20.976 30.0411 21.18 29.8731 21.348C29.7171 21.516 29.5131 21.6 29.2611 21.6C29.0211 21.6 28.8171 21.516 28.6491 21.348C28.4931 21.192 28.4151 20.988 28.4151 20.736V9.414C28.4151 9.162 28.4931 8.952 28.6491 8.784C28.8051 8.616 29.0091 8.532 29.2611 8.532C29.5131 8.532 29.7171 8.616 29.8731 8.784C30.0411 8.952 30.1251 9.162 30.1251 9.414V9.936C30.4131 9.516 30.8331 9.156 31.3851 8.856C31.9371 8.556 32.5251 8.406 33.1491 8.406ZM32.9511 16.578C33.5031 16.578 34.0011 16.434 34.4451 16.146C34.8891 15.858 35.2311 15.468 35.4711 14.976C35.7231 14.472 35.8491 13.908 35.8491 13.284C35.8491 12.66 35.7231 12.102 35.4711 11.61C35.2311 11.106 34.8891 10.71 34.4451 10.422C34.0011 10.134 33.5031 9.99 32.9511 9.99C32.3871 9.99 31.8831 10.134 31.4391 10.422C30.9951 10.698 30.6471 11.088 30.3951 11.592C30.1551 12.096 30.0351 12.66 30.0351 13.284C30.0351 13.908 30.1551 14.472 30.3951 14.976C30.6471 15.48 30.9951 15.876 31.4391 16.164C31.8831 16.44 32.3871 16.578 32.9511 16.578ZM48.6517 12.924C48.6397 13.14 48.5497 13.326 48.3817 13.482C48.2137 13.626 48.0157 13.698 47.7877 13.698H41.4517C41.5357 14.574 41.8657 15.276 42.4417 15.804C43.0297 16.332 43.7437 16.596 44.5837 16.596C45.1597 16.596 45.6277 16.512 45.9877 16.344C46.3477 16.176 46.6657 15.96 46.9417 15.696C47.1217 15.588 47.2957 15.534 47.4637 15.534C47.6677 15.534 47.8357 15.606 47.9677 15.75C48.1117 15.894 48.1837 16.062 48.1837 16.254C48.1837 16.506 48.0637 16.734 47.8237 16.938C47.4757 17.286 47.0137 17.58 46.4377 17.82C45.8617 18.06 45.2737 18.18 44.6737 18.18C43.7017 18.18 42.8437 17.976 42.0997 17.568C41.3677 17.16 40.7977 16.59 40.3897 15.858C39.9937 15.126 39.7957 14.298 39.7957 13.374C39.7957 12.366 39.9997 11.484 40.4077 10.728C40.8277 9.96 41.3737 9.372 42.0457 8.964C42.7297 8.556 43.4617 8.352 44.2417 8.352C45.0097 8.352 45.7297 8.55 46.4017 8.946C47.0737 9.342 47.6137 9.888 48.0217 10.584C48.4297 11.28 48.6397 12.06 48.6517 12.924ZM44.2417 9.936C43.5697 9.936 42.9877 10.128 42.4957 10.512C42.0037 10.884 41.6797 11.466 41.5237 12.258H46.8337V12.114C46.7737 11.478 46.4857 10.956 45.9697 10.548C45.4657 10.14 44.8897 9.936 44.2417 9.936ZM59.2576 8.442C59.5096 8.442 59.7136 8.526 59.8696 8.694C60.0376 8.85 60.1216 9.06 60.1216 9.324V17.136C60.1216 17.376 60.0376 17.58 59.8696 17.748C59.7136 17.916 59.5096 18 59.2576 18C59.0056 18 58.8016 17.922 58.6456 17.766C58.4896 17.598 58.4116 17.388 58.4116 17.136V16.668C58.0996 17.088 57.6736 17.448 57.1336 17.748C56.5936 18.036 56.0116 18.18 55.3876 18.18C54.5716 18.18 53.8276 17.97 53.1556 17.55C52.4956 17.13 51.9736 16.548 51.5896 15.804C51.2176 15.048 51.0316 14.202 51.0316 13.266C51.0316 12.33 51.2176 11.49 51.5896 10.746C51.9736 9.99 52.4956 9.402 53.1556 8.982C53.8156 8.562 54.5416 8.352 55.3336 8.352C55.9696 8.352 56.5576 8.484 57.0976 8.748C57.6496 9.012 58.0876 9.348 58.4116 9.756V9.324C58.4116 9.072 58.4896 8.862 58.6456 8.694C58.8016 8.526 59.0056 8.442 59.2576 8.442ZM55.5856 16.596C56.1496 16.596 56.6476 16.452 57.0796 16.164C57.5236 15.876 57.8656 15.48 58.1056 14.976C58.3576 14.472 58.4836 13.902 58.4836 13.266C58.4836 12.642 58.3576 12.078 58.1056 11.574C57.8656 11.07 57.5236 10.674 57.0796 10.386C56.6476 10.086 56.1496 9.936 55.5856 9.936C55.0216 9.936 54.5176 10.08 54.0736 10.368C53.6416 10.656 53.2996 11.052 53.0476 11.556C52.8076 12.06 52.6876 12.63 52.6876 13.266C52.6876 13.902 52.8076 14.472 53.0476 14.976C53.2996 15.48 53.6416 15.876 54.0736 16.164C54.5176 16.452 55.0216 16.596 55.5856 16.596ZM66.1203 10.242V15.606C66.1203 16.206 66.3903 16.506 66.9303 16.506C67.0143 16.506 67.1283 16.488 67.2723 16.452C67.4163 16.404 67.5303 16.38 67.6143 16.38C67.7703 16.38 67.9023 16.446 68.0103 16.578C68.1183 16.71 68.1723 16.878 68.1723 17.082C68.1723 17.334 68.0283 17.55 67.7403 17.73C67.4523 17.91 67.1283 18 66.7683 18C66.3723 18 66.0063 17.958 65.6703 17.874C65.3463 17.79 65.0523 17.58 64.7883 17.244C64.5363 16.896 64.4103 16.374 64.4103 15.678V10.242H63.3663C63.1383 10.242 62.9463 10.17 62.7903 10.026C62.6463 9.87 62.5743 9.678 62.5743 9.45C62.5743 9.222 62.6463 9.036 62.7903 8.892C62.9463 8.748 63.1383 8.676 63.3663 8.676H64.4103V7.164C64.4103 6.924 64.4883 6.72 64.6443 6.552C64.8123 6.384 65.0223 6.3 65.2743 6.3C65.5143 6.3 65.7123 6.384 65.8683 6.552C66.0363 6.72 66.1203 6.924 66.1203 7.164V8.676H67.6143C67.8423 8.676 68.0283 8.754 68.1723 8.91C68.3283 9.054 68.4063 9.24 68.4063 9.468C68.4063 9.696 68.3283 9.882 68.1723 10.026C68.0283 10.17 67.8423 10.242 67.6143 10.242H66.1203Z" transform="translate(234.812 384.915)" fill="white"/>
<path d="M13.9542 5.66H9.54424V17H7.92424V5.66H3.51424V4.22H13.9542V5.66ZM18.597 17.18C17.889 17.18 17.241 17.054 16.653 16.802C16.065 16.538 15.561 16.184 15.141 15.74C14.721 15.296 14.391 14.78 14.151 14.192C13.923 13.592 13.809 12.962 13.809 12.302C13.809 11.642 13.923 11.018 14.151 10.43C14.391 9.842 14.721 9.326 15.141 8.882C15.573 8.438 16.083 8.09 16.671 7.838C17.259 7.574 17.907 7.442 18.615 7.442C19.323 7.442 19.965 7.574 20.541 7.838C21.129 8.102 21.627 8.456 22.035 8.9C22.443 9.332 22.755 9.842 22.971 10.43C23.199 11.006 23.313 11.606 23.313 12.23C23.313 12.362 23.307 12.482 23.295 12.59C23.295 12.698 23.289 12.782 23.277 12.842H15.483C15.519 13.31 15.627 13.736 15.807 14.12C15.987 14.504 16.221 14.834 16.509 15.11C16.797 15.386 17.121 15.602 17.481 15.758C17.853 15.914 18.243 15.992 18.651 15.992C18.939 15.992 19.221 15.956 19.497 15.884C19.773 15.8 20.031 15.692 20.271 15.56C20.511 15.428 20.721 15.266 20.901 15.074C21.093 14.882 21.237 14.666 21.333 14.426L22.701 14.804C22.545 15.152 22.329 15.47 22.053 15.758C21.789 16.046 21.477 16.298 21.117 16.514C20.769 16.718 20.379 16.88 19.947 17C19.515 17.12 19.065 17.18 18.597 17.18ZM21.819 11.672C21.783 11.228 21.669 10.82 21.477 10.448C21.297 10.064 21.063 9.74 20.775 9.476C20.499 9.212 20.175 9.008 19.803 8.864C19.431 8.708 19.035 8.63 18.615 8.63C18.195 8.63 17.799 8.708 17.427 8.864C17.055 9.008 16.725 9.218 16.437 9.494C16.161 9.758 15.933 10.076 15.753 10.448C15.585 10.82 15.483 11.228 15.447 11.672H21.819ZM29.2677 17.18C28.5117 17.18 27.7677 17.066 27.0357 16.838C26.3037 16.598 25.6737 16.256 25.1457 15.812L25.8297 14.75C26.3817 15.17 26.9337 15.488 27.4857 15.704C28.0377 15.908 28.6197 16.01 29.2317 16.01C29.9157 16.01 30.4557 15.878 30.8517 15.614C31.2597 15.338 31.4637 14.954 31.4637 14.462C31.4637 14.234 31.4097 14.042 31.3017 13.886C31.1937 13.718 31.0317 13.574 30.8157 13.454C30.5997 13.334 30.3237 13.226 29.9877 13.13C29.6517 13.034 29.2617 12.932 28.8177 12.824C28.2537 12.68 27.7677 12.542 27.3597 12.41C26.9517 12.278 26.6157 12.122 26.3517 11.942C26.0877 11.762 25.8957 11.546 25.7757 11.294C25.6557 11.042 25.5957 10.73 25.5957 10.358C25.5957 9.89 25.6857 9.476 25.8657 9.116C26.0577 8.744 26.3157 8.438 26.6397 8.198C26.9637 7.946 27.3417 7.76 27.7737 7.64C28.2177 7.508 28.6917 7.442 29.1957 7.442C29.9037 7.442 30.5637 7.556 31.1757 7.784C31.7877 8.012 32.3037 8.312 32.7237 8.684L32.0037 9.638C31.6077 9.29 31.1637 9.032 30.6717 8.864C30.1797 8.684 29.6757 8.594 29.1597 8.594C28.5837 8.594 28.0917 8.72 27.6837 8.972C27.2877 9.212 27.0897 9.602 27.0897 10.142C27.0897 10.358 27.1257 10.538 27.1977 10.682C27.2817 10.826 27.4137 10.952 27.5937 11.06C27.7737 11.168 28.0017 11.264 28.2777 11.348C28.5657 11.432 28.9077 11.522 29.3037 11.618C29.9277 11.762 30.4677 11.912 30.9237 12.068C31.3917 12.212 31.7757 12.386 32.0757 12.59C32.3877 12.794 32.6157 13.034 32.7597 13.31C32.9157 13.586 32.9937 13.922 32.9937 14.318C32.9937 15.194 32.6577 15.89 31.9857 16.406C31.3137 16.922 30.4077 17.18 29.2677 17.18ZM40.6283 16.532C40.5323 16.58 40.4063 16.64 40.2503 16.712C40.0943 16.772 39.9143 16.838 39.7103 16.91C39.5183 16.97 39.3023 17.018 39.0623 17.054C38.8343 17.102 38.5943 17.126 38.3423 17.126C37.7663 17.126 37.2683 16.97 36.8483 16.658C36.4283 16.334 36.2183 15.836 36.2183 15.164V8.846H34.9403V7.604H36.2183V4.472H37.8023V7.604H39.9083V8.846H37.8023V14.678C37.8263 15.026 37.9403 15.278 38.1443 15.434C38.3483 15.59 38.5883 15.668 38.8643 15.668C39.1763 15.668 39.4583 15.62 39.7103 15.524C39.9743 15.416 40.1543 15.332 40.2503 15.272L40.6283 16.532ZM42.9964 17V7.604H44.5804V17H42.9964ZM42.9964 5.84V3.86H44.5804V5.84H42.9964ZM56.1988 17H54.6148V11.744C54.6148 10.736 54.4588 10.004 54.1468 9.548C53.8468 9.092 53.3848 8.864 52.7608 8.864C52.4368 8.864 52.1128 8.93 51.7888 9.062C51.4648 9.182 51.1588 9.35 50.8708 9.566C50.5828 9.782 50.3308 10.04 50.1148 10.34C49.8988 10.64 49.7368 10.97 49.6288 11.33V17H48.0448V7.604H49.4848V9.62C49.8568 8.96 50.3908 8.432 51.0868 8.036C51.7948 7.64 52.5628 7.442 53.3908 7.442C53.9308 7.442 54.3808 7.544 54.7408 7.748C55.1008 7.94 55.3888 8.216 55.6048 8.576C55.8208 8.924 55.9708 9.338 56.0548 9.818C56.1508 10.298 56.1988 10.82 56.1988 11.384V17ZM63.306 17.108C62.67 17.108 62.082 16.976 61.542 16.712C61.014 16.448 60.558 16.094 60.174 15.65C59.79 15.206 59.49 14.696 59.274 14.12C59.07 13.544 58.968 12.944 58.968 12.32C58.968 11.66 59.07 11.036 59.274 10.448C59.49 9.848 59.79 9.326 60.174 8.882C60.558 8.438 61.014 8.09 61.542 7.838C62.082 7.574 62.676 7.442 63.324 7.442C64.116 7.442 64.8 7.634 65.376 8.018C65.952 8.402 66.438 8.888 66.834 9.476V7.604H68.238V16.892C68.238 17.564 68.112 18.152 67.86 18.656C67.608 19.172 67.266 19.604 66.834 19.952C66.402 20.3 65.892 20.564 65.304 20.744C64.728 20.924 64.11 21.014 63.45 21.014C62.382 21.014 61.512 20.828 60.84 20.456C60.18 20.096 59.628 19.592 59.184 18.944L60.102 18.134C60.474 18.686 60.954 19.1 61.542 19.376C62.13 19.652 62.766 19.79 63.45 19.79C63.882 19.79 64.29 19.73 64.674 19.61C65.07 19.49 65.412 19.31 65.7 19.07C65.988 18.83 66.216 18.53 66.384 18.17C66.564 17.81 66.654 17.384 66.654 16.892V15.236C66.474 15.524 66.258 15.788 66.006 16.028C65.766 16.256 65.502 16.454 65.214 16.622C64.926 16.778 64.62 16.898 64.296 16.982C63.972 17.066 63.642 17.108 63.306 17.108ZM63.792 15.812C64.128 15.812 64.452 15.752 64.764 15.632C65.076 15.512 65.364 15.356 65.628 15.164C65.892 14.96 66.114 14.732 66.294 14.48C66.474 14.228 66.594 13.97 66.654 13.706V11.006C66.522 10.682 66.348 10.388 66.132 10.124C65.928 9.86 65.694 9.632 65.43 9.44C65.166 9.236 64.878 9.08 64.566 8.972C64.266 8.864 63.96 8.81 63.648 8.81C63.168 8.81 62.736 8.912 62.352 9.116C61.98 9.32 61.662 9.59 61.398 9.926C61.134 10.262 60.93 10.646 60.786 11.078C60.642 11.498 60.57 11.924 60.57 12.356C60.57 12.824 60.654 13.268 60.822 13.688C60.99 14.108 61.218 14.474 61.506 14.786C61.794 15.098 62.13 15.35 62.514 15.542C62.91 15.722 63.336 15.812 63.792 15.812Z" transform="translate(450.375 285.671)" fill="white"/>
<path d="M2.62104 17V4.22H7.04904C8.06904 4.22 8.96304 4.388 9.73104 4.724C10.511 5.06 11.159 5.516 11.675 6.092C12.191 6.668 12.575 7.346 12.827 8.126C13.091 8.894 13.223 9.716 13.223 10.592C13.223 11.564 13.079 12.446 12.791 13.238C12.503 14.018 12.089 14.69 11.549 15.254C11.009 15.806 10.355 16.238 9.58704 16.55C8.83104 16.85 7.98504 17 7.04904 17H2.62104ZM11.585 10.592C11.585 9.872 11.483 9.212 11.279 8.612C11.087 8 10.793 7.478 10.397 7.046C10.013 6.614 9.53904 6.278 8.97504 6.038C8.41104 5.786 7.76904 5.66 7.04904 5.66H4.24104V15.56H7.04904C7.78104 15.56 8.42904 15.434 8.99304 15.182C9.56904 14.93 10.043 14.582 10.415 14.138C10.799 13.694 11.087 13.172 11.279 12.572C11.483 11.96 11.585 11.3 11.585 10.592ZM20.3118 17.18C19.6038 17.18 18.9558 17.054 18.3678 16.802C17.7798 16.538 17.2758 16.184 16.8558 15.74C16.4358 15.296 16.1058 14.78 15.8658 14.192C15.6378 13.592 15.5238 12.962 15.5238 12.302C15.5238 11.642 15.6378 11.018 15.8658 10.43C16.1058 9.842 16.4358 9.326 16.8558 8.882C17.2878 8.438 17.7978 8.09 18.3858 7.838C18.9738 7.574 19.6218 7.442 20.3298 7.442C21.0378 7.442 21.6798 7.574 22.2558 7.838C22.8438 8.102 23.3418 8.456 23.7498 8.9C24.1578 9.332 24.4698 9.842 24.6858 10.43C24.9138 11.006 25.0278 11.606 25.0278 12.23C25.0278 12.362 25.0218 12.482 25.0098 12.59C25.0098 12.698 25.0038 12.782 24.9918 12.842H17.1978C17.2338 13.31 17.3418 13.736 17.5218 14.12C17.7018 14.504 17.9358 14.834 18.2238 15.11C18.5118 15.386 18.8358 15.602 19.1958 15.758C19.5678 15.914 19.9578 15.992 20.3658 15.992C20.6538 15.992 20.9358 15.956 21.2118 15.884C21.4878 15.8 21.7458 15.692 21.9858 15.56C22.2258 15.428 22.4358 15.266 22.6158 15.074C22.8078 14.882 22.9518 14.666 23.0478 14.426L24.4158 14.804C24.2598 15.152 24.0438 15.47 23.7678 15.758C23.5038 16.046 23.1918 16.298 22.8318 16.514C22.4838 16.718 22.0938 16.88 21.6618 17C21.2298 17.12 20.7798 17.18 20.3118 17.18ZM23.5338 11.672C23.4978 11.228 23.3838 10.82 23.1918 10.448C23.0118 10.064 22.7778 9.74 22.4898 9.476C22.2138 9.212 21.8898 9.008 21.5178 8.864C21.1458 8.708 20.7498 8.63 20.3298 8.63C19.9098 8.63 19.5138 8.708 19.1418 8.864C18.7698 9.008 18.4398 9.218 18.1518 9.494C17.8758 9.758 17.6478 10.076 17.4678 10.448C17.2998 10.82 17.1978 11.228 17.1618 11.672H23.5338ZM30.9826 17.18C30.2266 17.18 29.4826 17.066 28.7506 16.838C28.0186 16.598 27.3886 16.256 26.8606 15.812L27.5446 14.75C28.0966 15.17 28.6486 15.488 29.2006 15.704C29.7526 15.908 30.3346 16.01 30.9466 16.01C31.6306 16.01 32.1706 15.878 32.5666 15.614C32.9746 15.338 33.1786 14.954 33.1786 14.462C33.1786 14.234 33.1246 14.042 33.0166 13.886C32.9086 13.718 32.7466 13.574 32.5306 13.454C32.3146 13.334 32.0386 13.226 31.7026 13.13C31.3666 13.034 30.9766 12.932 30.5326 12.824C29.9686 12.68 29.4826 12.542 29.0746 12.41C28.6666 12.278 28.3306 12.122 28.0666 11.942C27.8026 11.762 27.6106 11.546 27.4906 11.294C27.3706 11.042 27.3106 10.73 27.3106 10.358C27.3106 9.89 27.4006 9.476 27.5806 9.116C27.7726 8.744 28.0306 8.438 28.3546 8.198C28.6786 7.946 29.0566 7.76 29.4886 7.64C29.9326 7.508 30.4066 7.442 30.9106 7.442C31.6186 7.442 32.2786 7.556 32.8906 7.784C33.5026 8.012 34.0186 8.312 34.4386 8.684L33.7186 9.638C33.3226 9.29 32.8786 9.032 32.3866 8.864C31.8946 8.684 31.3906 8.594 30.8746 8.594C30.2986 8.594 29.8066 8.72 29.3986 8.972C29.0026 9.212 28.8046 9.602 28.8046 10.142C28.8046 10.358 28.8406 10.538 28.9126 10.682C28.9966 10.826 29.1286 10.952 29.3086 11.06C29.4886 11.168 29.7166 11.264 29.9926 11.348C30.2806 11.432 30.6226 11.522 31.0186 11.618C31.6426 11.762 32.1826 11.912 32.6386 12.068C33.1066 12.212 33.4906 12.386 33.7906 12.59C34.1026 12.794 34.3306 13.034 34.4746 13.31C34.6306 13.586 34.7086 13.922 34.7086 14.318C34.7086 15.194 34.3726 15.89 33.7006 16.406C33.0286 16.922 32.1226 17.18 30.9826 17.18ZM37.4831 17V7.604H39.0671V17H37.4831ZM37.4831 5.84V3.86H39.0671V5.84H37.4831ZM46.2755 17.108C45.6395 17.108 45.0515 16.976 44.5115 16.712C43.9835 16.448 43.5275 16.094 43.1435 15.65C42.7595 15.206 42.4595 14.696 42.2435 14.12C42.0395 13.544 41.9375 12.944 41.9375 12.32C41.9375 11.66 42.0395 11.036 42.2435 10.448C42.4595 9.848 42.7595 9.326 43.1435 8.882C43.5275 8.438 43.9835 8.09 44.5115 7.838C45.0515 7.574 45.6455 7.442 46.2935 7.442C47.0855 7.442 47.7695 7.634 48.3455 8.018C48.9215 8.402 49.4075 8.888 49.8035 9.476V7.604H51.2075V16.892C51.2075 17.564 51.0815 18.152 50.8295 18.656C50.5775 19.172 50.2355 19.604 49.8035 19.952C49.3715 20.3 48.8615 20.564 48.2735 20.744C47.6975 20.924 47.0795 21.014 46.4195 21.014C45.3515 21.014 44.4815 20.828 43.8095 20.456C43.1495 20.096 42.5975 19.592 42.1535 18.944L43.0715 18.134C43.4435 18.686 43.9235 19.1 44.5115 19.376C45.0995 19.652 45.7355 19.79 46.4195 19.79C46.8515 19.79 47.2595 19.73 47.6435 19.61C48.0395 19.49 48.3815 19.31 48.6695 19.07C48.9575 18.83 49.1855 18.53 49.3535 18.17C49.5335 17.81 49.6235 17.384 49.6235 16.892V15.236C49.4435 15.524 49.2275 15.788 48.9755 16.028C48.7355 16.256 48.4715 16.454 48.1835 16.622C47.8955 16.778 47.5895 16.898 47.2655 16.982C46.9415 17.066 46.6115 17.108 46.2755 17.108ZM46.7615 15.812C47.0975 15.812 47.4215 15.752 47.7335 15.632C48.0455 15.512 48.3335 15.356 48.5975 15.164C48.8615 14.96 49.0835 14.732 49.2635 14.48C49.4435 14.228 49.5635 13.97 49.6235 13.706V11.006C49.4915 10.682 49.3175 10.388 49.1015 10.124C48.8975 9.86 48.6635 9.632 48.3995 9.44C48.1355 9.236 47.8475 9.08 47.5355 8.972C47.2355 8.864 46.9295 8.81 46.6175 8.81C46.1375 8.81 45.7055 8.912 45.3215 9.116C44.9495 9.32 44.6315 9.59 44.3675 9.926C44.1035 10.262 43.8995 10.646 43.7555 11.078C43.6115 11.498 43.5395 11.924 43.5395 12.356C43.5395 12.824 43.6235 13.268 43.7915 13.688C43.9595 14.108 44.1875 14.474 44.4755 14.786C44.7635 15.098 45.0995 15.35 45.4835 15.542C45.8795 15.722 46.3055 15.812 46.7615 15.812ZM62.818 17H61.234V11.744C61.234 10.736 61.078 10.004 60.766 9.548C60.466 9.092 60.004 8.864 59.38 8.864C59.056 8.864 58.732 8.93 58.408 9.062C58.084 9.182 57.778 9.35 57.49 9.566C57.202 9.782 56.95 10.04 56.734 10.34C56.518 10.64 56.356 10.97 56.248 11.33V17H54.664V7.604H56.104V9.62C56.476 8.96 57.01 8.432 57.706 8.036C58.414 7.64 59.182 7.442 60.01 7.442C60.55 7.442 61 7.544 61.36 7.748C61.72 7.94 62.008 8.216 62.224 8.576C62.44 8.924 62.59 9.338 62.674 9.818C62.77 10.298 62.818 10.82 62.818 11.384V17Z" transform="translate(413.59 114.979)" fill="white"/>
<path d="M2.77689 17V4.22H8.24889C8.81289 4.22 9.32889 4.34 9.79689 4.58C10.2769 4.808 10.6849 5.12 11.0209 5.516C11.3689 5.9 11.6389 6.338 11.8309 6.83C12.0229 7.31 12.1189 7.802 12.1189 8.306C12.1189 8.75 12.0529 9.182 11.9209 9.602C11.8009 10.01 11.6209 10.382 11.3809 10.718C11.1529 11.054 10.8709 11.342 10.5349 11.582C10.2109 11.822 9.84489 11.996 9.43689 12.104L12.5329 17H10.6969L7.78089 12.41H4.39689V17H2.77689ZM4.39689 10.97H8.26689C8.60289 10.97 8.90289 10.898 9.16689 10.754C9.44289 10.61 9.67689 10.418 9.86889 10.178C10.0609 9.926 10.2109 9.638 10.3189 9.314C10.4269 8.99 10.4809 8.654 10.4809 8.306C10.4809 7.946 10.4149 7.61 10.2829 7.298C10.1629 6.974 9.99489 6.692 9.77889 6.452C9.57489 6.2 9.32889 6.008 9.04089 5.876C8.76489 5.732 8.47089 5.66 8.15889 5.66H4.39689V10.97ZM19.1141 17.18C18.4061 17.18 17.7581 17.054 17.1701 16.802C16.5821 16.538 16.0781 16.184 15.6581 15.74C15.2381 15.296 14.9081 14.78 14.6681 14.192C14.4401 13.592 14.3261 12.962 14.3261 12.302C14.3261 11.642 14.4401 11.018 14.6681 10.43C14.9081 9.842 15.2381 9.326 15.6581 8.882C16.0901 8.438 16.6001 8.09 17.1881 7.838C17.7761 7.574 18.4241 7.442 19.1321 7.442C19.8401 7.442 20.4821 7.574 21.0581 7.838C21.6461 8.102 22.1441 8.456 22.5521 8.9C22.9601 9.332 23.2721 9.842 23.4881 10.43C23.7161 11.006 23.8301 11.606 23.8301 12.23C23.8301 12.362 23.8241 12.482 23.8121 12.59C23.8121 12.698 23.8061 12.782 23.7941 12.842H16.0001C16.0361 13.31 16.1441 13.736 16.3241 14.12C16.5041 14.504 16.7381 14.834 17.0261 15.11C17.3141 15.386 17.6381 15.602 17.9981 15.758C18.3701 15.914 18.7601 15.992 19.1681 15.992C19.4561 15.992 19.7381 15.956 20.0141 15.884C20.2901 15.8 20.5481 15.692 20.7881 15.56C21.0281 15.428 21.2381 15.266 21.4181 15.074C21.6101 14.882 21.7541 14.666 21.8501 14.426L23.2181 14.804C23.0621 15.152 22.8461 15.47 22.5701 15.758C22.3061 16.046 21.9941 16.298 21.6341 16.514C21.2861 16.718 20.8961 16.88 20.4641 17C20.0321 17.12 19.5821 17.18 19.1141 17.18ZM22.3361 11.672C22.3001 11.228 22.1861 10.82 21.9941 10.448C21.8141 10.064 21.5801 9.74 21.2921 9.476C21.0161 9.212 20.6921 9.008 20.3201 8.864C19.9481 8.708 19.5521 8.63 19.1321 8.63C18.7121 8.63 18.3161 8.708 17.9441 8.864C17.5721 9.008 17.2421 9.218 16.9541 9.494C16.6781 9.758 16.4501 10.076 16.2701 10.448C16.1021 10.82 16.0001 11.228 15.9641 11.672H22.3361ZM29.7849 17.18C29.0289 17.18 28.2849 17.066 27.5529 16.838C26.8209 16.598 26.1909 16.256 25.6629 15.812L26.3469 14.75C26.8989 15.17 27.4509 15.488 28.0029 15.704C28.5549 15.908 29.1369 16.01 29.7489 16.01C30.4329 16.01 30.9729 15.878 31.3689 15.614C31.7769 15.338 31.9809 14.954 31.9809 14.462C31.9809 14.234 31.9269 14.042 31.8189 13.886C31.7109 13.718 31.5489 13.574 31.3329 13.454C31.1169 13.334 30.8409 13.226 30.5049 13.13C30.1689 13.034 29.7789 12.932 29.3349 12.824C28.7709 12.68 28.2849 12.542 27.8769 12.41C27.4689 12.278 27.1329 12.122 26.8689 11.942C26.6049 11.762 26.4129 11.546 26.2929 11.294C26.1729 11.042 26.1129 10.73 26.1129 10.358C26.1129 9.89 26.2029 9.476 26.3829 9.116C26.5749 8.744 26.8329 8.438 27.1569 8.198C27.4809 7.946 27.8589 7.76 28.2909 7.64C28.7349 7.508 29.2089 7.442 29.7129 7.442C30.4209 7.442 31.0809 7.556 31.6929 7.784C32.3049 8.012 32.8209 8.312 33.2409 8.684L32.5209 9.638C32.1249 9.29 31.6809 9.032 31.1889 8.864C30.6969 8.684 30.1929 8.594 29.6769 8.594C29.1009 8.594 28.6089 8.72 28.2009 8.972C27.8049 9.212 27.6069 9.602 27.6069 10.142C27.6069 10.358 27.6429 10.538 27.7149 10.682C27.7989 10.826 27.9309 10.952 28.1109 11.06C28.2909 11.168 28.5189 11.264 28.7949 11.348C29.0829 11.432 29.4249 11.522 29.8209 11.618C30.4449 11.762 30.9849 11.912 31.4409 12.068C31.9089 12.212 32.2929 12.386 32.5929 12.59C32.9049 12.794 33.1329 13.034 33.2769 13.31C33.4329 13.586 33.5109 13.922 33.5109 14.318C33.5109 15.194 33.1749 15.89 32.5029 16.406C31.8309 16.922 30.9249 17.18 29.7849 17.18ZM40.4434 17.18C39.7354 17.18 39.0874 17.054 38.4994 16.802C37.9114 16.538 37.4074 16.184 36.9874 15.74C36.5674 15.296 36.2374 14.78 35.9974 14.192C35.7694 13.592 35.6554 12.962 35.6554 12.302C35.6554 11.642 35.7694 11.018 35.9974 10.43C36.2374 9.842 36.5674 9.326 36.9874 8.882C37.4194 8.438 37.9294 8.09 38.5174 7.838C39.1054 7.574 39.7534 7.442 40.4614 7.442C41.1694 7.442 41.8114 7.574 42.3874 7.838C42.9754 8.102 43.4734 8.456 43.8814 8.9C44.2894 9.332 44.6014 9.842 44.8174 10.43C45.0454 11.006 45.1594 11.606 45.1594 12.23C45.1594 12.362 45.1534 12.482 45.1414 12.59C45.1414 12.698 45.1354 12.782 45.1234 12.842H37.3294C37.3654 13.31 37.4734 13.736 37.6534 14.12C37.8334 14.504 38.0674 14.834 38.3554 15.11C38.6434 15.386 38.9674 15.602 39.3274 15.758C39.6994 15.914 40.0894 15.992 40.4974 15.992C40.7854 15.992 41.0674 15.956 41.3434 15.884C41.6194 15.8 41.8774 15.692 42.1174 15.56C42.3574 15.428 42.5674 15.266 42.7474 15.074C42.9394 14.882 43.0834 14.666 43.1794 14.426L44.5474 14.804C44.3914 15.152 44.1754 15.47 43.8994 15.758C43.6354 16.046 43.3234 16.298 42.9634 16.514C42.6154 16.718 42.2254 16.88 41.7934 17C41.3614 17.12 40.9114 17.18 40.4434 17.18ZM43.6654 11.672C43.6294 11.228 43.5154 10.82 43.3234 10.448C43.1434 10.064 42.9094 9.74 42.6214 9.476C42.3454 9.212 42.0214 9.008 41.6494 8.864C41.2774 8.708 40.8814 8.63 40.4614 8.63C40.0414 8.63 39.6454 8.708 39.2734 8.864C38.9014 9.008 38.5714 9.218 38.2834 9.494C38.0074 9.758 37.7794 10.076 37.5994 10.448C37.4314 10.82 37.3294 11.228 37.2934 11.672H43.6654ZM50.2322 17.18C49.7882 17.18 49.3742 17.108 48.9902 16.964C48.6062 16.808 48.2702 16.598 47.9822 16.334C47.7062 16.07 47.4842 15.764 47.3162 15.416C47.1602 15.056 47.0822 14.666 47.0822 14.246C47.0822 13.814 47.1782 13.424 47.3702 13.076C47.5622 12.716 47.8322 12.41 48.1802 12.158C48.5402 11.906 48.9602 11.708 49.4402 11.564C49.9322 11.42 50.4662 11.348 51.0422 11.348C51.4982 11.348 51.9602 11.39 52.4282 11.474C52.8962 11.558 53.3102 11.672 53.6702 11.816V11.06C53.6702 10.292 53.4542 9.692 53.0222 9.26C52.5902 8.816 51.9782 8.594 51.1862 8.594C50.2382 8.594 49.2422 8.96 48.1982 9.692L47.6762 8.666C48.8882 7.85 50.1062 7.442 51.3302 7.442C52.5662 7.442 53.5262 7.772 54.2102 8.432C54.9062 9.092 55.2542 10.022 55.2542 11.222V15.056C55.2542 15.428 55.4222 15.62 55.7582 15.632V17C55.5902 17.024 55.4522 17.042 55.3442 17.054C55.2362 17.066 55.1222 17.072 55.0022 17.072C54.6902 17.072 54.4382 16.982 54.2462 16.802C54.0662 16.61 53.9582 16.382 53.9222 16.118L53.8862 15.452C53.4662 16.016 52.9322 16.448 52.2842 16.748C51.6482 17.036 50.9642 17.18 50.2322 17.18ZM50.6462 15.992C51.2102 15.992 51.7322 15.89 52.2122 15.686C52.7042 15.47 53.0762 15.188 53.3282 14.84C53.5562 14.612 53.6702 14.378 53.6702 14.138V12.752C52.9022 12.452 52.1042 12.302 51.2762 12.302C50.4842 12.302 49.8362 12.47 49.3322 12.806C48.8402 13.142 48.5942 13.58 48.5942 14.12C48.5942 14.384 48.6422 14.63 48.7382 14.858C48.8462 15.086 48.9902 15.284 49.1702 15.452C49.3622 15.62 49.5842 15.752 49.8362 15.848C50.0882 15.944 50.3582 15.992 50.6462 15.992ZM63.655 8.99C62.863 9.014 62.161 9.218 61.549 9.602C60.949 9.986 60.523 10.52 60.271 11.204V17H58.687V7.604H60.163V9.782C60.487 9.134 60.913 8.612 61.441 8.216C61.969 7.808 62.533 7.58 63.133 7.532C63.253 7.532 63.355 7.532 63.439 7.532C63.523 7.532 63.595 7.538 63.655 7.55V8.99ZM65.2851 12.284C65.2851 11.624 65.3991 11 65.6271 10.412C65.8551 9.824 66.1791 9.314 66.5991 8.882C67.0191 8.438 67.5171 8.09 68.0931 7.838C68.6811 7.574 69.3351 7.442 70.0551 7.442C70.9911 7.442 71.7951 7.652 72.4671 8.072C73.1511 8.48 73.6671 9.032 74.0151 9.728L72.4671 10.214C72.2271 9.77 71.8911 9.428 71.4591 9.188C71.0271 8.936 70.5471 8.81 70.0191 8.81C69.5871 8.81 69.1791 8.9 68.7951 9.08C68.4111 9.248 68.0811 9.488 67.8051 9.8C67.5291 10.112 67.3071 10.478 67.1391 10.898C66.9831 11.318 66.9051 11.78 66.9051 12.284C66.9051 12.776 66.9891 13.238 67.1571 13.67C67.3251 14.102 67.5471 14.48 67.8231 14.804C68.1111 15.116 68.4411 15.362 68.8131 15.542C69.1971 15.722 69.6051 15.812 70.0371 15.812C70.3131 15.812 70.5831 15.776 70.8471 15.704C71.1231 15.62 71.3691 15.512 71.5851 15.38C71.8131 15.248 72.0111 15.098 72.1791 14.93C72.3471 14.75 72.4671 14.558 72.5391 14.354L74.0871 14.822C73.9431 15.17 73.7391 15.488 73.4751 15.776C73.2231 16.064 72.9231 16.31 72.5751 16.514C72.2271 16.718 71.8371 16.88 71.4051 17C70.9851 17.12 70.5411 17.18 70.0731 17.18C69.3651 17.18 68.7171 17.048 68.1291 16.784C67.5411 16.52 67.0371 16.166 66.6171 15.722C66.1971 15.278 65.8671 14.762 65.6271 14.174C65.3991 13.574 65.2851 12.944 65.2851 12.284ZM84.9359 17H83.3519V11.744C83.3519 10.772 83.1839 10.052 82.8479 9.584C82.5119 9.104 82.0199 8.864 81.3719 8.864C81.0599 8.864 80.7479 8.93 80.4359 9.062C80.1239 9.182 79.8299 9.35 79.5539 9.566C79.2899 9.782 79.0499 10.04 78.8339 10.34C78.6299 10.64 78.4739 10.97 78.3659 11.33V17H76.7819V3.86H78.3659V9.62C78.7379 8.936 79.2419 8.402 79.8779 8.018C80.5139 7.634 81.2099 7.442 81.9659 7.442C82.5179 7.442 82.9859 7.544 83.3699 7.748C83.7539 7.952 84.0599 8.228 84.2879 8.576C84.5159 8.924 84.6779 9.344 84.7739 9.836C84.8819 10.316 84.9359 10.832 84.9359 11.384V17ZM97.9111 4.22L89.2711 17H87.5071L96.1291 4.22H97.9111ZM6.45072 38V25.22H10.8787C11.8987 25.22 12.7927 25.388 13.5607 25.724C14.3407 26.06 14.9887 26.516 15.5047 27.092C16.0207 27.668 16.4047 28.346 16.6567 29.126C16.9207 29.894 17.0527 30.716 17.0527 31.592C17.0527 32.564 16.9087 33.446 16.6207 34.238C16.3327 35.018 15.9187 35.69 15.3787 36.254C14.8387 36.806 14.1847 37.238 13.4167 37.55C12.6607 37.85 11.8147 38 10.8787 38H6.45072ZM15.4147 31.592C15.4147 30.872 15.3127 30.212 15.1087 29.612C14.9167 29 14.6227 28.478 14.2267 28.046C13.8427 27.614 13.3687 27.278 12.8047 27.038C12.2407 26.786 11.5987 26.66 10.8787 26.66H8.07072V36.56H10.8787C11.6107 36.56 12.2587 36.434 12.8227 36.182C13.3987 35.93 13.8727 35.582 14.2447 35.138C14.6287 34.694 14.9167 34.172 15.1087 33.572C15.3127 32.96 15.4147 32.3 15.4147 31.592ZM19.9835 38V28.604H21.5675V38H19.9835ZM19.9835 26.84V24.86H21.5675V26.84H19.9835ZM28.3259 38.18C27.5699 38.18 26.8259 38.066 26.0939 37.838C25.3619 37.598 24.7319 37.256 24.2039 36.812L24.8879 35.75C25.4399 36.17 25.9919 36.488 26.5439 36.704C27.0959 36.908 27.6779 37.01 28.2899 37.01C28.9739 37.01 29.5139 36.878 29.9099 36.614C30.3179 36.338 30.5219 35.954 30.5219 35.462C30.5219 35.234 30.4679 35.042 30.3599 34.886C30.2519 34.718 30.0899 34.574 29.8739 34.454C29.6579 34.334 29.3819 34.226 29.0459 34.13C28.7099 34.034 28.3199 33.932 27.8759 33.824C27.3119 33.68 26.8259 33.542 26.4179 33.41C26.0099 33.278 25.6739 33.122 25.4099 32.942C25.1459 32.762 24.9539 32.546 24.8339 32.294C24.7139 32.042 24.6539 31.73 24.6539 31.358C24.6539 30.89 24.7439 30.476 24.9239 30.116C25.1159 29.744 25.3739 29.438 25.6979 29.198C26.0219 28.946 26.3999 28.76 26.8319 28.64C27.2759 28.508 27.7499 28.442 28.2539 28.442C28.9619 28.442 29.6219 28.556 30.2339 28.784C30.8459 29.012 31.3619 29.312 31.7819 29.684L31.0619 30.638C30.6659 30.29 30.2219 30.032 29.7299 29.864C29.2379 29.684 28.7339 29.594 28.2179 29.594C27.6419 29.594 27.1499 29.72 26.7419 29.972C26.3459 30.212 26.1479 30.602 26.1479 31.142C26.1479 31.358 26.1839 31.538 26.2559 31.682C26.3399 31.826 26.4719 31.952 26.6519 32.06C26.8319 32.168 27.0599 32.264 27.3359 32.348C27.6239 32.432 27.9659 32.522 28.3619 32.618C28.9859 32.762 29.5259 32.912 29.9819 33.068C30.4499 33.212 30.8339 33.386 31.1339 33.59C31.4459 33.794 31.6739 34.034 31.8179 34.31C31.9739 34.586 32.0519 34.922 32.0519 35.318C32.0519 36.194 31.7159 36.89 31.0439 37.406C30.3719 37.922 29.4659 38.18 28.3259 38.18ZM34.1965 33.284C34.1965 32.624 34.3105 32 34.5385 31.412C34.7665 30.824 35.0905 30.314 35.5105 29.882C35.9305 29.438 36.4285 29.09 37.0045 28.838C37.5925 28.574 38.2465 28.442 38.9665 28.442C39.9025 28.442 40.7065 28.652 41.3785 29.072C42.0625 29.48 42.5785 30.032 42.9265 30.728L41.3785 31.214C41.1385 30.77 40.8025 30.428 40.3705 30.188C39.9385 29.936 39.4585 29.81 38.9305 29.81C38.4985 29.81 38.0905 29.9 37.7065 30.08C37.3225 30.248 36.9925 30.488 36.7165 30.8C36.4405 31.112 36.2185 31.478 36.0505 31.898C35.8945 32.318 35.8165 32.78 35.8165 33.284C35.8165 33.776 35.9005 34.238 36.0685 34.67C36.2365 35.102 36.4585 35.48 36.7345 35.804C37.0225 36.116 37.3525 36.362 37.7245 36.542C38.1085 36.722 38.5165 36.812 38.9485 36.812C39.2245 36.812 39.4945 36.776 39.7585 36.704C40.0345 36.62 40.2805 36.512 40.4965 36.38C40.7245 36.248 40.9225 36.098 41.0905 35.93C41.2585 35.75 41.3785 35.558 41.4505 35.354L42.9985 35.822C42.8545 36.17 42.6505 36.488 42.3865 36.776C42.1345 37.064 41.8345 37.31 41.4865 37.514C41.1385 37.718 40.7485 37.88 40.3165 38C39.8965 38.12 39.4525 38.18 38.9845 38.18C38.2765 38.18 37.6285 38.048 37.0405 37.784C36.4525 37.52 35.9485 37.166 35.5285 36.722C35.1085 36.278 34.7785 35.762 34.5385 35.174C34.3105 34.574 34.1965 33.944 34.1965 33.284ZM49.7094 38.18C49.0014 38.18 48.3534 38.048 47.7654 37.784C47.1894 37.52 46.6914 37.166 46.2714 36.722C45.8634 36.278 45.5454 35.762 45.3174 35.174C45.0894 34.586 44.9754 33.968 44.9754 33.32C44.9754 32.66 45.0894 32.036 45.3174 31.448C45.5574 30.86 45.8814 30.344 46.2894 29.9C46.7094 29.456 47.2074 29.102 47.7834 28.838C48.3714 28.574 49.0134 28.442 49.7094 28.442C50.4054 28.442 51.0474 28.574 51.6354 28.838C52.2234 29.102 52.7214 29.456 53.1294 29.9C53.5494 30.344 53.8734 30.86 54.1014 31.448C54.3414 32.036 54.4614 32.66 54.4614 33.32C54.4614 33.968 54.3474 34.586 54.1194 35.174C53.8914 35.762 53.5674 36.278 53.1474 36.722C52.7274 37.166 52.2234 37.52 51.6354 37.784C51.0594 38.048 50.4174 38.18 49.7094 38.18ZM46.5954 33.338C46.5954 33.83 46.6734 34.286 46.8294 34.706C46.9974 35.126 47.2194 35.492 47.4954 35.804C47.7834 36.116 48.1134 36.362 48.4854 36.542C48.8694 36.722 49.2774 36.812 49.7094 36.812C50.1414 36.812 50.5434 36.722 50.9154 36.542C51.2994 36.362 51.6354 36.116 51.9234 35.804C52.2114 35.48 52.4334 35.108 52.5894 34.688C52.7574 34.256 52.8414 33.794 52.8414 33.302C52.8414 32.822 52.7574 32.372 52.5894 31.952C52.4334 31.52 52.2114 31.148 51.9234 30.836C51.6354 30.512 51.2994 30.26 50.9154 30.08C50.5434 29.9 50.1414 29.81 49.7094 29.81C49.2774 29.81 48.8694 29.906 48.4854 30.098C48.1134 30.278 47.7834 30.53 47.4954 30.854C47.2194 31.166 46.9974 31.538 46.8294 31.97C46.6734 32.39 46.5954 32.846 46.5954 33.338ZM59.6823 38L55.9743 28.604H57.6123L60.5823 36.614L63.5703 28.604H65.0823L61.3743 38H59.6823ZM71.3915 38.18C70.6835 38.18 70.0355 38.054 69.4475 37.802C68.8595 37.538 68.3555 37.184 67.9355 36.74C67.5155 36.296 67.1855 35.78 66.9455 35.192C66.7175 34.592 66.6035 33.962 66.6035 33.302C66.6035 32.642 66.7175 32.018 66.9455 31.43C67.1855 30.842 67.5155 30.326 67.9355 29.882C68.3675 29.438 68.8775 29.09 69.4655 28.838C70.0535 28.574 70.7015 28.442 71.4095 28.442C72.1175 28.442 72.7595 28.574 73.3355 28.838C73.9235 29.102 74.4215 29.456 74.8295 29.9C75.2375 30.332 75.5495 30.842 75.7655 31.43C75.9935 32.006 76.1075 32.606 76.1075 33.23C76.1075 33.362 76.1015 33.482 76.0895 33.59C76.0895 33.698 76.0835 33.782 76.0715 33.842H68.2775C68.3135 34.31 68.4215 34.736 68.6015 35.12C68.7815 35.504 69.0155 35.834 69.3035 36.11C69.5915 36.386 69.9155 36.602 70.2755 36.758C70.6475 36.914 71.0375 36.992 71.4455 36.992C71.7335 36.992 72.0155 36.956 72.2915 36.884C72.5675 36.8 72.8255 36.692 73.0655 36.56C73.3055 36.428 73.5155 36.266 73.6955 36.074C73.8875 35.882 74.0315 35.666 74.1275 35.426L75.4955 35.804C75.3395 36.152 75.1235 36.47 74.8475 36.758C74.5835 37.046 74.2715 37.298 73.9115 37.514C73.5635 37.718 73.1735 37.88 72.7415 38C72.3095 38.12 71.8595 38.18 71.3915 38.18ZM74.6135 32.672C74.5775 32.228 74.4635 31.82 74.2715 31.448C74.0915 31.064 73.8575 30.74 73.5695 30.476C73.2935 30.212 72.9695 30.008 72.5975 29.864C72.2255 29.708 71.8295 29.63 71.4095 29.63C70.9895 29.63 70.5935 29.708 70.2215 29.864C69.8495 30.008 69.5195 30.218 69.2315 30.494C68.9555 30.758 68.7275 31.076 68.5475 31.448C68.3795 31.82 68.2775 32.228 68.2415 32.672H74.6135ZM83.7362 29.99C82.9442 30.014 82.2422 30.218 81.6302 30.602C81.0302 30.986 80.6042 31.52 80.3522 32.204V38H78.7682V28.604H80.2442V30.782C80.5682 30.134 80.9942 29.612 81.5222 29.216C82.0502 28.808 82.6142 28.58 83.2142 28.532C83.3342 28.532 83.4362 28.532 83.5202 28.532C83.6042 28.532 83.6762 28.538 83.7362 28.55V29.99ZM86.6393 40.556C86.7953 40.58 86.9513 40.598 87.1073 40.61C87.2633 40.622 87.3833 40.628 87.4673 40.628C87.6113 40.628 87.7373 40.592 87.8453 40.52C87.9653 40.46 88.0793 40.334 88.1873 40.142C88.3073 39.95 88.4393 39.68 88.5833 39.332C88.7273 38.996 88.9073 38.552 89.1233 38L85.1453 28.604H86.7833L89.9873 36.578L92.9033 28.604H94.4153L89.8433 40.466C89.6753 40.886 89.3933 41.252 88.9973 41.564C88.6133 41.888 88.0793 42.05 87.3953 42.05C87.2873 42.05 87.1733 42.044 87.0533 42.032C86.9453 42.02 86.8073 41.996 86.6393 41.96V40.556Z" transform="translate(181.86 107.824)" fill="white"/>
<circle cx="4.58049" cy="4.58049" r="3.58049" transform="translate(282.419 181.083)" stroke="#B7D2D2" stroke-width="2"/>
<circle cx="4.58049" cy="4.58049" r="3.58049" transform="translate(352.653 109.322)" stroke="#B7D2D2" stroke-width="2"/>
<path d="M0 67.2759V10C0 4.47715 4.47715 0 10 0H65.6537" transform="translate(287 113.902)" stroke="#D85B79" stroke-width="2"/>
<circle cx="4.58049" cy="4.58049" r="3.58049" transform="translate(37.7446 335.293)" stroke="#B7D2D2" stroke-width="2"/>
<circle cx="4.58049" cy="4.58049" r="3.58049" transform="translate(482.052 335.293)" stroke="#B7D2D2" stroke-width="2"/>
</svg>
