<svg width="35" height="47" viewBox="0 0 35 47" fill="none" xmlns="http://www.w3.org/2000/svg">
<path d="M6.16806 2.17866C6.42864 1.3469 7.55446 1.22344 7.98911 1.97895L20.9333 24.4785C21.3632 25.2258 20.7093 26.1305 19.8648 25.9567L1.08324 22.0896C0.503431 21.9702 0.153664 21.3761 0.330642 20.8112L6.16806 2.17866Z" transform="translate(28.746 51.3185) scale(1 -1) rotate(30)" fill="white"/>
<path fill-rule="evenodd" clip-rule="evenodd" d="M31.9505 0.289191C31.9505 0.289188 31.9505 0.289185 31.9505 0.289183C32.5828 -0.332912 33.6519 0.114994 33.6519 1.00202C33.6519 1.00202 33.6519 1.00202 33.6519 1.00202V11.4532C33.6519 12.0245 33.4075 12.5685 32.9806 12.9481C32.9806 12.9481 32.9806 12.9481 32.9806 12.9481L17.4948 26.7132C17.4948 26.7132 17.4948 26.7132 17.4948 26.7132C17.1166 27.0494 16.5468 27.0501 16.1678 26.7147C16.1678 26.7147 16.1678 26.7147 16.1678 26.7147L15.6135 26.2242C15.5978 26.2104 15.5817 26.1971 15.5655 26.184C15.5397 26.1633 15.5143 26.1419 15.4894 26.1197C15.4894 26.1197 15.4893 26.1196 15.4892 26.1195L14.195 24.9691C14.1944 24.9686 14.1939 24.9681 14.1933 24.9676L10.3416 21.5595C10.3392 21.5574 10.3391 21.5537 10.3413 21.5515C10.3436 21.5493 10.3435 21.5456 10.3411 21.5435L0.671271 12.948C0.671267 12.948 0.671262 12.948 0.671258 12.948C0.244321 12.5685 0 12.0245 0 11.4532V1.0054C0 1.0054 0 1.0054 0 1.0054C0 0.117894 1.07012 -0.329799 1.70208 0.293301C1.70209 0.293305 1.70209 0.293308 1.70209 0.293312L16.1073 14.4964C16.4964 14.88 17.1213 14.8803 17.5108 14.4971L31.9505 0.289191Z" transform="translate(1.00854 0.103394)" fill="#7AABD3"/>
<path d="M6.16806 2.17865C6.42864 1.3469 7.55446 1.22344 7.98911 1.97895L20.9333 24.4785C21.3632 25.2258 20.7093 26.1305 19.8648 25.9567L1.08324 22.0896C0.503431 21.9702 0.153664 21.3761 0.330642 20.8112L6.16806 2.17865Z" transform="translate(6.92303 51.3185) rotate(-150)" fill="white"/>
</svg>
