<svg width="34" height="47" viewBox="0 0 34 47" fill="none" xmlns="http://www.w3.org/2000/svg">
<mask id="mask0" mask-type="alpha" maskUnits="userSpaceOnUse" x="0" y="0" width="34" height="47">
<path d="M33.6518 0H0V46.5216H33.6518V0Z" fill="#C4C4C4"/>
</mask>
<g mask="url(#mask0)">
<path d="M5.88353 0.701227C6.14411 -0.130533 7.26993 -0.253992 7.70458 0.501517L20.6488 23.0011C21.0787 23.7484 20.4248 24.6531 19.5803 24.4793L0.798711 20.6122C0.218902 20.4928 -0.130865 19.8987 0.0461135 19.3338L5.88353 0.701227Z" transform="translate(27.2451 49.7933) scale(1 -1) rotate(30)" fill="white"/>
<path fill-rule="evenodd" clip-rule="evenodd" d="M31.9505 0.289191C31.9505 0.289188 31.9505 0.289185 31.9505 0.289183C32.5828 -0.332912 33.6519 0.114994 33.6519 1.00202V11.4532C33.6519 12.0245 33.4075 12.5685 32.9806 12.9481L17.4948 26.7132C17.1166 27.0494 16.5468 27.0501 16.1678 26.7147L15.6135 26.2242C15.5978 26.2104 15.5817 26.1971 15.5655 26.184C15.5397 26.1633 15.5143 26.1419 15.4894 26.1197C15.4894 26.1197 15.4893 26.1196 15.4892 26.1195L14.195 24.9691C14.1944 24.9686 14.1939 24.9681 14.1933 24.9676L10.3416 21.5595C10.3392 21.5574 10.3391 21.5537 10.3413 21.5515C10.3436 21.5493 10.3435 21.5456 10.3411 21.5435L0.671271 12.948C0.671267 12.948 0.671262 12.948 0.671258 12.948C0.244321 12.5685 0 12.0245 0 11.4532V1.0054C0 0.117894 1.07012 -0.329799 1.70208 0.293301C1.70209 0.293305 1.70209 0.293308 1.70209 0.293312L16.1073 14.4964C16.4964 14.88 17.1213 14.8803 17.5108 14.4971L31.9505 0.289191Z" fill="#7AABD3"/>
<path d="M5.88353 0.701218C6.14411 -0.130532 7.26993 -0.253992 7.70458 0.501518L20.6488 23.0011C21.0787 23.7484 20.4248 24.6531 19.5803 24.4793L0.798711 20.6122C0.218902 20.4928 -0.130865 19.8987 0.0461135 19.3338L5.88353 0.701218Z" transform="translate(6.40674 49.7933) rotate(-150)" fill="white"/>
</g>
</svg>
